<svg width="256" height="347" viewBox="0 0 256 347" fill="none" xmlns="http://www.w3.org/2000/svg">
<rect y="339" width="256" height="8" fill="currentColor"/>
<rect y="68" width="60" height="8" transform="rotate(-90 0 68)" fill="currentColor"/>
<rect y="347" width="99" height="8" transform="rotate(-90 0 347)" fill="currentColor"/>
<rect width="256" height="8" fill="currentColor"/>
<rect x="248" y="343" width="226" height="8" transform="rotate(-90 248 343)" fill="currentColor"/>
<rect x="248" y="43" width="43" height="8" transform="rotate(-90 248 43)" fill="currentColor"/>
<path d="M120 288H56V329H120V288Z" fill="#F9F9F9"/>
<path d="M147 278H120V329H147V278Z" fill="#F9F9F9"/>
<path d="M228 246H147V329H228V246Z" fill="#F9F9F9"/>
<path d="M197 278H147V329H197V278Z" fill="#F6F6F6"/>
<path d="M181.473 263V256.93C181.473 256.699 181.475 256.502 181.479 256.338C181.482 256.17 181.486 256.018 181.49 255.881C181.498 255.74 181.508 255.598 181.52 255.453C181.398 255.578 181.283 255.686 181.174 255.775C181.068 255.861 180.938 255.969 180.781 256.098L179.809 256.883L179.299 256.221L181.613 254.434H182.428V263H181.473ZM189.514 258.705C189.514 259.4 189.461 260.021 189.355 260.568C189.25 261.115 189.084 261.578 188.857 261.957C188.631 262.336 188.338 262.625 187.979 262.824C187.619 263.02 187.188 263.117 186.684 263.117C186.203 263.117 185.785 263.02 185.43 262.824C185.078 262.625 184.785 262.338 184.551 261.963C184.32 261.584 184.148 261.121 184.035 260.574C183.922 260.027 183.865 259.404 183.865 258.705C183.865 257.787 183.957 257 184.141 256.344C184.328 255.688 184.627 255.184 185.037 254.832C185.451 254.477 186 254.299 186.684 254.299C187.332 254.299 187.863 254.475 188.277 254.826C188.695 255.174 189.006 255.678 189.209 256.338C189.412 256.994 189.514 257.783 189.514 258.705ZM184.844 258.705C184.844 259.904 184.984 260.801 185.266 261.395C185.551 261.988 186.023 262.285 186.684 262.285C187.344 262.285 187.816 261.99 188.102 261.4C188.387 260.807 188.529 259.908 188.529 258.705C188.529 257.92 188.469 257.264 188.348 256.736C188.227 256.205 188.031 255.807 187.762 255.541C187.492 255.271 187.133 255.137 186.684 255.137C186.234 255.137 185.875 255.271 185.605 255.541C185.336 255.807 185.141 256.205 185.02 256.736C184.902 257.264 184.844 257.92 184.844 258.705ZM193.131 254.434L193.219 254.562C193.148 254.852 193.059 255.16 192.949 255.488C192.84 255.812 192.721 256.137 192.592 256.461C192.463 256.781 192.334 257.084 192.205 257.369H191.473C191.555 257.072 191.637 256.75 191.719 256.402C191.801 256.055 191.875 255.709 191.941 255.365C192.008 255.021 192.061 254.711 192.1 254.434H193.131ZM190.975 254.434L191.057 254.562C190.99 254.852 190.9 255.16 190.787 255.488C190.678 255.812 190.559 256.137 190.43 256.461C190.301 256.781 190.172 257.084 190.043 257.369H189.34C189.398 257.146 189.457 256.908 189.516 256.654C189.578 256.4 189.635 256.143 189.686 255.881C189.74 255.619 189.789 255.365 189.832 255.119C189.879 254.873 189.916 254.645 189.943 254.434H190.975Z" fill="#EEEEEE"/>
<path d="M209.473 293V286.93C209.473 286.699 209.475 286.502 209.479 286.338C209.482 286.17 209.486 286.018 209.49 285.881C209.498 285.74 209.508 285.598 209.52 285.453C209.398 285.578 209.283 285.686 209.174 285.775C209.068 285.861 208.938 285.969 208.781 286.098L207.809 286.883L207.299 286.221L209.613 284.434H210.428V293H209.473ZM217.514 288.705C217.514 289.4 217.461 290.021 217.355 290.568C217.25 291.115 217.084 291.578 216.857 291.957C216.631 292.336 216.338 292.625 215.979 292.824C215.619 293.02 215.188 293.117 214.684 293.117C214.203 293.117 213.785 293.02 213.43 292.824C213.078 292.625 212.785 292.338 212.551 291.963C212.32 291.584 212.148 291.121 212.035 290.574C211.922 290.027 211.865 289.404 211.865 288.705C211.865 287.787 211.957 287 212.141 286.344C212.328 285.688 212.627 285.184 213.037 284.832C213.451 284.477 214 284.299 214.684 284.299C215.332 284.299 215.863 284.475 216.277 284.826C216.695 285.174 217.006 285.678 217.209 286.338C217.412 286.994 217.514 287.783 217.514 288.705ZM212.844 288.705C212.844 289.904 212.984 290.801 213.266 291.395C213.551 291.988 214.023 292.285 214.684 292.285C215.344 292.285 215.816 291.99 216.102 291.4C216.387 290.807 216.529 289.908 216.529 288.705C216.529 287.92 216.469 287.264 216.348 286.736C216.227 286.205 216.031 285.807 215.762 285.541C215.492 285.271 215.133 285.137 214.684 285.137C214.234 285.137 213.875 285.271 213.605 285.541C213.336 285.807 213.141 286.205 213.02 286.736C212.902 287.264 212.844 287.92 212.844 288.705ZM221.131 284.434L221.219 284.562C221.148 284.852 221.059 285.16 220.949 285.488C220.84 285.812 220.721 286.137 220.592 286.461C220.463 286.781 220.334 287.084 220.205 287.369H219.473C219.555 287.072 219.637 286.75 219.719 286.402C219.801 286.055 219.875 285.709 219.941 285.365C220.008 285.021 220.061 284.711 220.1 284.434H221.131ZM218.975 284.434L219.057 284.562C218.99 284.852 218.9 285.16 218.787 285.488C218.678 285.812 218.559 286.137 218.43 286.461C218.301 286.781 218.172 287.084 218.043 287.369H217.34C217.398 287.146 217.457 286.908 217.516 286.654C217.578 286.4 217.635 286.143 217.686 285.881C217.74 285.619 217.789 285.365 217.832 285.119C217.879 284.873 217.916 284.645 217.943 284.434H218.975Z" fill="#EEEEEE"/>
<path d="M153.473 293V286.93C153.473 286.699 153.475 286.502 153.479 286.338C153.482 286.17 153.486 286.018 153.49 285.881C153.498 285.74 153.508 285.598 153.52 285.453C153.398 285.578 153.283 285.686 153.174 285.775C153.068 285.861 152.938 285.969 152.781 286.098L151.809 286.883L151.299 286.221L153.613 284.434H154.428V293H153.473ZM161.514 288.705C161.514 289.4 161.461 290.021 161.355 290.568C161.25 291.115 161.084 291.578 160.857 291.957C160.631 292.336 160.338 292.625 159.979 292.824C159.619 293.02 159.188 293.117 158.684 293.117C158.203 293.117 157.785 293.02 157.43 292.824C157.078 292.625 156.785 292.338 156.551 291.963C156.32 291.584 156.148 291.121 156.035 290.574C155.922 290.027 155.865 289.404 155.865 288.705C155.865 287.787 155.957 287 156.141 286.344C156.328 285.688 156.627 285.184 157.037 284.832C157.451 284.477 158 284.299 158.684 284.299C159.332 284.299 159.863 284.475 160.277 284.826C160.695 285.174 161.006 285.678 161.209 286.338C161.412 286.994 161.514 287.783 161.514 288.705ZM156.844 288.705C156.844 289.904 156.984 290.801 157.266 291.395C157.551 291.988 158.023 292.285 158.684 292.285C159.344 292.285 159.816 291.99 160.102 291.4C160.387 290.807 160.529 289.908 160.529 288.705C160.529 287.92 160.469 287.264 160.348 286.736C160.227 286.205 160.031 285.807 159.762 285.541C159.492 285.271 159.133 285.137 158.684 285.137C158.234 285.137 157.875 285.271 157.605 285.541C157.336 285.807 157.141 286.205 157.02 286.736C156.902 287.264 156.844 287.92 156.844 288.705ZM165.131 284.434L165.219 284.562C165.148 284.852 165.059 285.16 164.949 285.488C164.84 285.812 164.721 286.137 164.592 286.461C164.463 286.781 164.334 287.084 164.205 287.369H163.473C163.555 287.072 163.637 286.75 163.719 286.402C163.801 286.055 163.875 285.709 163.941 285.365C164.008 285.021 164.061 284.711 164.1 284.434H165.131ZM162.975 284.434L163.057 284.562C162.99 284.852 162.9 285.16 162.787 285.488C162.678 285.812 162.559 286.137 162.43 286.461C162.301 286.781 162.172 287.084 162.043 287.369H161.34C161.398 287.146 161.457 286.908 161.516 286.654C161.578 286.4 161.635 286.143 161.686 285.881C161.74 285.619 161.789 285.365 161.832 285.119C161.879 284.873 161.916 284.645 161.943 284.434H162.975Z" fill="#EEEEEE"/>
<path d="M82.6738 301.338C82.6738 300.822 82.709 300.318 82.7793 299.826C82.8535 299.334 82.9766 298.877 83.1484 298.455C83.3203 298.029 83.5527 297.656 83.8457 297.336C84.1426 297.016 84.5117 296.766 84.9531 296.586C85.3984 296.402 85.9316 296.311 86.5527 296.311C86.7324 296.311 86.9219 296.32 87.1211 296.34C87.3242 296.355 87.4922 296.383 87.625 296.422V297.26C87.4805 297.209 87.3164 297.172 87.1328 297.148C86.9492 297.125 86.7637 297.113 86.5762 297.113C85.8535 297.113 85.2832 297.271 84.8652 297.588C84.4473 297.9 84.1445 298.328 83.957 298.871C83.7734 299.41 83.668 300.02 83.6406 300.699H83.7109C83.832 300.504 83.9863 300.328 84.1738 300.172C84.3613 300.012 84.5879 299.885 84.8535 299.791C85.123 299.697 85.4355 299.65 85.791 299.65C86.291 299.65 86.7266 299.752 87.0977 299.955C87.4727 300.158 87.7617 300.453 87.9648 300.84C88.1719 301.227 88.2754 301.695 88.2754 302.246C88.2754 302.836 88.1641 303.346 87.9414 303.775C87.7227 304.205 87.4102 304.537 87.0039 304.771C86.6016 305.002 86.123 305.117 85.5684 305.117C85.1504 305.117 84.7637 305.037 84.4082 304.877C84.0566 304.717 83.75 304.479 83.4883 304.162C83.2305 303.846 83.0293 303.453 82.8848 302.984C82.7441 302.512 82.6738 301.963 82.6738 301.338ZM85.5566 304.297C86.084 304.297 86.5078 304.127 86.8281 303.787C87.1484 303.447 87.3086 302.934 87.3086 302.246C87.3086 301.684 87.166 301.24 86.8809 300.916C86.5957 300.588 86.168 300.422 85.5977 300.418C85.207 300.414 84.8672 300.494 84.5781 300.658C84.2891 300.818 84.0645 301.023 83.9043 301.273C83.7441 301.52 83.6641 301.77 83.6641 302.023C83.6641 302.281 83.7012 302.543 83.7754 302.809C83.8535 303.074 83.9688 303.32 84.1211 303.547C84.2773 303.773 84.4746 303.955 84.7129 304.092C84.9512 304.229 85.2324 304.297 85.5566 304.297ZM91.7871 296.434L91.875 296.562C91.8047 296.852 91.7148 297.16 91.6055 297.488C91.4961 297.812 91.377 298.137 91.248 298.461C91.1191 298.781 90.9902 299.084 90.8613 299.369H90.1289C90.2109 299.072 90.293 298.75 90.375 298.402C90.457 298.055 90.5312 297.709 90.5977 297.365C90.6641 297.021 90.7168 296.711 90.7559 296.434H91.7871ZM89.6309 296.434L89.7129 296.562C89.6465 296.852 89.5566 297.16 89.4434 297.488C89.334 297.812 89.2148 298.137 89.0859 298.461C88.957 298.781 88.8281 299.084 88.6992 299.369H87.9961C88.0547 299.146 88.1133 298.908 88.1719 298.654C88.2344 298.4 88.291 298.143 88.3418 297.881C88.3965 297.619 88.4453 297.365 88.4883 297.119C88.5352 296.873 88.5723 296.645 88.5996 296.434H89.6309Z" fill="#EEEEEE"/>
<path d="M124.674 305.338C124.674 304.822 124.709 304.318 124.779 303.826C124.854 303.334 124.977 302.877 125.148 302.455C125.32 302.029 125.553 301.656 125.846 301.336C126.143 301.016 126.512 300.766 126.953 300.586C127.398 300.402 127.932 300.311 128.553 300.311C128.732 300.311 128.922 300.32 129.121 300.34C129.324 300.355 129.492 300.383 129.625 300.422V301.26C129.48 301.209 129.316 301.172 129.133 301.148C128.949 301.125 128.764 301.113 128.576 301.113C127.854 301.113 127.283 301.271 126.865 301.588C126.447 301.9 126.145 302.328 125.957 302.871C125.773 303.41 125.668 304.02 125.641 304.699H125.711C125.832 304.504 125.986 304.328 126.174 304.172C126.361 304.012 126.588 303.885 126.854 303.791C127.123 303.697 127.436 303.65 127.791 303.65C128.291 303.65 128.727 303.752 129.098 303.955C129.473 304.158 129.762 304.453 129.965 304.84C130.172 305.227 130.275 305.695 130.275 306.246C130.275 306.836 130.164 307.346 129.941 307.775C129.723 308.205 129.41 308.537 129.004 308.771C128.602 309.002 128.123 309.117 127.568 309.117C127.15 309.117 126.764 309.037 126.408 308.877C126.057 308.717 125.75 308.479 125.488 308.162C125.23 307.846 125.029 307.453 124.885 306.984C124.744 306.512 124.674 305.963 124.674 305.338ZM127.557 308.297C128.084 308.297 128.508 308.127 128.828 307.787C129.148 307.447 129.309 306.934 129.309 306.246C129.309 305.684 129.166 305.24 128.881 304.916C128.596 304.588 128.168 304.422 127.598 304.418C127.207 304.414 126.867 304.494 126.578 304.658C126.289 304.818 126.064 305.023 125.904 305.273C125.744 305.52 125.664 305.77 125.664 306.023C125.664 306.281 125.701 306.543 125.775 306.809C125.854 307.074 125.969 307.32 126.121 307.547C126.277 307.773 126.475 307.955 126.713 308.092C126.951 308.229 127.232 308.297 127.557 308.297ZM133.787 300.434L133.875 300.562C133.805 300.852 133.715 301.16 133.605 301.488C133.496 301.812 133.377 302.137 133.248 302.461C133.119 302.781 132.99 303.084 132.861 303.369H132.129C132.211 303.072 132.293 302.75 132.375 302.402C132.457 302.055 132.531 301.709 132.598 301.365C132.664 301.021 132.717 300.711 132.756 300.434H133.787ZM131.631 300.434L131.713 300.562C131.646 300.852 131.557 301.16 131.443 301.488C131.334 301.812 131.215 302.137 131.086 302.461C130.957 302.781 130.828 303.084 130.699 303.369H129.996C130.055 303.146 130.113 302.908 130.172 302.654C130.234 302.4 130.291 302.143 130.342 301.881C130.396 301.619 130.445 301.365 130.488 301.119C130.535 300.873 130.572 300.645 130.6 300.434H131.631Z" fill="#EEEEEE"/>
<path d="M64.4297 314V312.014H60.2812V311.193L64.3652 305.387H65.373V311.135H66.6562V312.014H65.373V314H64.4297ZM64.4297 311.135V308.334C64.4297 308.049 64.4297 307.793 64.4297 307.566C64.4336 307.34 64.4395 307.137 64.4473 306.957C64.4551 306.777 64.4648 306.615 64.4766 306.471H64.4297C64.3438 306.627 64.2383 306.803 64.1133 306.998C63.9883 307.193 63.877 307.359 63.7793 307.496L61.248 311.135H64.4297ZM69.8457 305.434L69.9336 305.562C69.8633 305.852 69.7734 306.16 69.6641 306.488C69.5547 306.812 69.4355 307.137 69.3066 307.461C69.1777 307.781 69.0488 308.084 68.9199 308.369H68.1875C68.2695 308.072 68.3516 307.75 68.4336 307.402C68.5156 307.055 68.5898 306.709 68.6562 306.365C68.7227 306.021 68.7754 305.711 68.8145 305.434H69.8457ZM67.6895 305.434L67.7715 305.562C67.7051 305.852 67.6152 306.16 67.502 306.488C67.3926 306.812 67.2734 307.137 67.1445 307.461C67.0156 307.781 66.8867 308.084 66.7578 308.369H66.0547C66.1133 308.146 66.1719 307.908 66.2305 307.654C66.293 307.4 66.3496 307.143 66.4004 306.881C66.4551 306.619 66.5039 306.365 66.5469 306.119C66.5938 305.873 66.6309 305.645 66.6582 305.434H67.6895Z" fill="#EEEEEE"/>
</svg>
