<svg width="448" height="376" viewBox="0 0 448 376" fill="none" xmlns="http://www.w3.org/2000/svg"><path fill="currentColor" d="M186 0H448V8H186z"/><path fill="currentColor" d="M0 0H75V8H0z"/><path fill="currentColor" d="M8 270H256V278H8z"/><path fill="currentColor" d="M375 368H440V376H375z"/><path transform="rotate(-90 0 278)" fill="currentColor" d="M0 278H270V286H0z"/><path transform="rotate(-90 256 310)" fill="currentColor" d="M256 310H296V318H256z"/><path transform="rotate(-90 256 376)" fill="currentColor" d="M256 376H273V384H256z"/><path fill="currentColor" d="M264 368H281V376H264z"/><path transform="rotate(-90 440 137)" fill="currentColor" d="M440 137H569V145H440z"/><path transform="rotate(-90 440 376)" fill="currentColor" d="M440 376H583V384H440z"/></svg>