<svg width="432" height="347" viewBox="0 0 432 347" fill="none" xmlns="http://www.w3.org/2000/svg"><path fill="currentColor" d="M0 339H424V347H0z"/><path transform="rotate(-90 0 343)" fill="currentColor" d="M0 343H226V351H0z"/><path transform="rotate(-90 0 43)" fill="currentColor" d="M0 43H43V51H0z"/><path transform="rotate(-90 424 347)" fill="currentColor" d="M424 347H771V355H424z"/><path fill="currentColor" d="M0 0H246V8H0z"/><path d="M267 249H71V339H267V249Z" fill="#F9F9F9"/><path d="M231 8H31V28H231V8Z" fill="#F9F9F9"/><path d="M59 296H8V339H59V296Z" fill="#F9F9F9"/><path d="M259 296H208V339H259V296Z" fill="#F6F6F6"/><path d="M195 296H144V339H195V296Z" fill="#F6F6F6"/><path d="M131 296H80V339H131V296Z" fill="#F6F6F6"/><path d="M319.37 325.89C335.591 325.89 348.741 314.498 348.741 300.445C348.741 286.392 335.591 275 319.37 275C303.15 275 290 286.392 290 300.445C290 314.498 303.15 325.89 319.37 325.89Z" fill="#F9F9F9"/><path d="M424 210H347V339H424V210Z" fill="#F9F9F9"/><path d="M424 182H378V210H424V182Z" fill="#F9F9F9"/><path d="M424 210H378V308H424V210Z" fill="#F6F6F6"/><path d="M424 8H404V132H424V8Z" fill="#F9F9F9"/><path d="M125.264 17.7617C125.85 17.7617 126.357 17.8613 126.787 18.0605C127.217 18.2559 127.549 18.541 127.783 18.916C128.018 19.291 128.135 19.7461 128.135 20.2812C128.135 20.8672 128.008 21.373 127.754 21.7988C127.5 22.2207 127.135 22.5469 126.658 22.7773C126.186 23.0039 125.617 23.1172 124.953 23.1172C124.504 23.1172 124.088 23.0781 123.705 23C123.322 22.9219 123 22.8047 122.738 22.6484V21.7227C123.023 21.8945 123.369 22.0312 123.775 22.1328C124.182 22.2344 124.576 22.2852 124.959 22.2852C125.393 22.2852 125.771 22.2168 126.096 22.0801C126.424 21.9395 126.678 21.7285 126.857 21.4473C127.041 21.1621 127.133 20.8047 127.133 20.375C127.133 19.8047 126.957 19.3652 126.605 19.0566C126.258 18.7441 125.709 18.5879 124.959 18.5879C124.713 18.5879 124.445 18.6074 124.156 18.6465C123.867 18.6855 123.631 18.7285 123.447 18.7754L122.949 18.4531L123.277 14.4336H127.543V15.3242H124.109L123.898 17.9023C124.043 17.875 124.232 17.8457 124.467 17.8145C124.705 17.7793 124.971 17.7617 125.264 17.7617ZM134.119 18.7051C134.119 19.4004 134.066 20.0215 133.961 20.5684C133.855 21.1152 133.689 21.5781 133.463 21.957C133.236 22.3359 132.943 22.625 132.584 22.8242C132.225 23.0195 131.793 23.1172 131.289 23.1172C130.809 23.1172 130.391 23.0195 130.035 22.8242C129.684 22.625 129.391 22.3379 129.156 21.9629C128.926 21.584 128.754 21.1211 128.641 20.5742C128.527 20.0273 128.471 19.4043 128.471 18.7051C128.471 17.7871 128.562 17 128.746 16.3438C128.934 15.6875 129.232 15.1836 129.643 14.832C130.057 14.4766 130.605 14.2988 131.289 14.2988C131.938 14.2988 132.469 14.4746 132.883 14.8262C133.301 15.1738 133.611 15.6777 133.814 16.3379C134.018 16.9941 134.119 17.7832 134.119 18.7051ZM129.449 18.7051C129.449 19.9043 129.59 20.8008 129.871 21.3945C130.156 21.9883 130.629 22.2852 131.289 22.2852C131.949 22.2852 132.422 21.9902 132.707 21.4004C132.992 20.8066 133.135 19.9082 133.135 18.7051C133.135 17.9199 133.074 17.2637 132.953 16.7363C132.832 16.2051 132.637 15.8066 132.367 15.541C132.098 15.2715 131.738 15.1367 131.289 15.1367C130.84 15.1367 130.48 15.2715 130.211 15.541C129.941 15.8066 129.746 16.2051 129.625 16.7363C129.508 17.2637 129.449 17.9199 129.449 18.7051ZM137.736 14.4336L137.824 14.5625C137.754 14.8516 137.664 15.1602 137.555 15.4883C137.445 15.8125 137.326 16.1367 137.197 16.4609C137.068 16.7812 136.939 17.084 136.811 17.3691H136.078C136.16 17.0723 136.242 16.75 136.324 16.4023C136.406 16.0547 136.48 15.709 136.547 15.3652C136.613 15.0215 136.666 14.7109 136.705 14.4336H137.736ZM135.58 14.4336L135.662 14.5625C135.596 14.8516 135.506 15.1602 135.393 15.4883C135.283 15.8125 135.164 16.1367 135.035 16.4609C134.906 16.7812 134.777 17.084 134.648 17.3691H133.945C134.004 17.1465 134.062 16.9082 134.121 16.6543C134.184 16.4004 134.24 16.1426 134.291 15.8809C134.346 15.6191 134.395 15.3652 134.438 15.1191C134.484 14.873 134.521 14.6445 134.549 14.4336H135.58Z" fill="#EEE"/><path d="M163.264 261.762C163.85 261.762 164.357 261.861 164.787 262.061C165.217 262.256 165.549 262.541 165.783 262.916C166.018 263.291 166.135 263.746 166.135 264.281C166.135 264.867 166.008 265.373 165.754 265.799C165.5 266.221 165.135 266.547 164.658 266.777C164.186 267.004 163.617 267.117 162.953 267.117C162.504 267.117 162.088 267.078 161.705 267C161.322 266.922 161 266.805 160.738 266.648V265.723C161.023 265.895 161.369 266.031 161.775 266.133C162.182 266.234 162.576 266.285 162.959 266.285C163.393 266.285 163.771 266.217 164.096 266.08C164.424 265.939 164.678 265.729 164.857 265.447C165.041 265.162 165.133 264.805 165.133 264.375C165.133 263.805 164.957 263.365 164.605 263.057C164.258 262.744 163.709 262.588 162.959 262.588C162.713 262.588 162.445 262.607 162.156 262.646C161.867 262.686 161.631 262.729 161.447 262.775L160.949 262.453L161.277 258.434H165.543V259.324H162.109L161.898 261.902C162.043 261.875 162.232 261.846 162.467 261.814C162.705 261.779 162.971 261.762 163.264 261.762ZM172.119 262.705C172.119 263.4 172.066 264.021 171.961 264.568C171.855 265.115 171.689 265.578 171.463 265.957C171.236 266.336 170.943 266.625 170.584 266.824C170.225 267.02 169.793 267.117 169.289 267.117C168.809 267.117 168.391 267.02 168.035 266.824C167.684 266.625 167.391 266.338 167.156 265.963C166.926 265.584 166.754 265.121 166.641 264.574C166.527 264.027 166.471 263.404 166.471 262.705C166.471 261.787 166.562 261 166.746 260.344C166.934 259.688 167.232 259.184 167.643 258.832C168.057 258.477 168.605 258.299 169.289 258.299C169.938 258.299 170.469 258.475 170.883 258.826C171.301 259.174 171.611 259.678 171.814 260.338C172.018 260.994 172.119 261.783 172.119 262.705ZM167.449 262.705C167.449 263.904 167.59 264.801 167.871 265.395C168.156 265.988 168.629 266.285 169.289 266.285C169.949 266.285 170.422 265.99 170.707 265.4C170.992 264.807 171.135 263.908 171.135 262.705C171.135 261.92 171.074 261.264 170.953 260.736C170.832 260.205 170.637 259.807 170.367 259.541C170.098 259.271 169.738 259.137 169.289 259.137C168.84 259.137 168.48 259.271 168.211 259.541C167.941 259.807 167.746 260.205 167.625 260.736C167.508 261.264 167.449 261.92 167.449 262.705ZM175.736 258.434L175.824 258.562C175.754 258.852 175.664 259.16 175.555 259.488C175.445 259.812 175.326 260.137 175.197 260.461C175.068 260.781 174.939 261.084 174.811 261.369H174.078C174.16 261.072 174.242 260.75 174.324 260.402C174.406 260.055 174.48 259.709 174.547 259.365C174.613 259.021 174.666 258.711 174.705 258.434H175.736ZM173.58 258.434L173.662 258.562C173.596 258.852 173.506 259.16 173.393 259.488C173.283 259.812 173.164 260.137 173.035 260.461C172.906 260.781 172.777 261.084 172.648 261.369H171.945C172.004 261.146 172.062 260.908 172.121 260.654C172.184 260.4 172.24 260.143 172.291 259.881C172.346 259.619 172.395 259.365 172.438 259.119C172.484 258.873 172.521 258.645 172.549 258.434H173.58Z" fill="#EEE"/><path d="M75.4629 302V301.186L77.7539 298.859C78.1797 298.43 78.5371 298.047 78.8262 297.711C79.1191 297.375 79.3418 297.045 79.4941 296.721C79.6465 296.393 79.7227 296.033 79.7227 295.643C79.7227 295.158 79.5781 294.789 79.2891 294.535C79.0039 294.277 78.6289 294.148 78.1641 294.148C77.75 294.148 77.3828 294.219 77.0625 294.359C76.7461 294.5 76.4238 294.699 76.0957 294.957L75.5742 294.301C75.8008 294.109 76.0469 293.939 76.3125 293.791C76.5781 293.643 76.8652 293.525 77.1738 293.439C77.4824 293.354 77.8125 293.311 78.1641 293.311C78.6875 293.311 79.1406 293.402 79.5234 293.586C79.9062 293.77 80.2012 294.031 80.4082 294.371C80.6152 294.711 80.7188 295.115 80.7188 295.584C80.7188 296.037 80.6289 296.459 80.4492 296.85C80.2695 297.236 80.0176 297.621 79.6934 298.004C79.373 298.383 78.9941 298.785 78.5566 299.211L76.6934 301.068V301.109H81.0703V302H75.4629ZM86.9434 297.705C86.9434 298.4 86.8906 299.021 86.7852 299.568C86.6797 300.115 86.5137 300.578 86.2871 300.957C86.0605 301.336 85.7676 301.625 85.4082 301.824C85.0488 302.02 84.6172 302.117 84.1133 302.117C83.6328 302.117 83.2148 302.02 82.8594 301.824C82.5078 301.625 82.2148 301.338 81.9805 300.963C81.75 300.584 81.5781 300.121 81.4648 299.574C81.3516 299.027 81.2949 298.404 81.2949 297.705C81.2949 296.787 81.3867 296 81.5703 295.344C81.7578 294.688 82.0566 294.184 82.4668 293.832C82.8809 293.477 83.4297 293.299 84.1133 293.299C84.7617 293.299 85.293 293.475 85.707 293.826C86.125 294.174 86.4355 294.678 86.6387 295.338C86.8418 295.994 86.9434 296.783 86.9434 297.705ZM82.2734 297.705C82.2734 298.904 82.4141 299.801 82.6953 300.395C82.9805 300.988 83.4531 301.285 84.1133 301.285C84.7734 301.285 85.2461 300.99 85.5312 300.4C85.8164 299.807 85.959 298.908 85.959 297.705C85.959 296.92 85.8984 296.264 85.7773 295.736C85.6562 295.205 85.4609 294.807 85.1914 294.541C84.9219 294.271 84.5625 294.137 84.1133 294.137C83.6641 294.137 83.3047 294.271 83.0352 294.541C82.7656 294.807 82.5703 295.205 82.4492 295.736C82.332 296.264 82.2734 296.92 82.2734 297.705ZM90.5605 293.434L90.6484 293.562C90.5781 293.852 90.4883 294.16 90.3789 294.488C90.2695 294.812 90.1504 295.137 90.0215 295.461C89.8926 295.781 89.7637 296.084 89.6348 296.369H88.9023C88.9844 296.072 89.0664 295.75 89.1484 295.402C89.2305 295.055 89.3047 294.709 89.3711 294.365C89.4375 294.021 89.4902 293.711 89.5293 293.434H90.5605ZM88.4043 293.434L88.4863 293.562C88.4199 293.852 88.3301 294.16 88.2168 294.488C88.1074 294.812 87.9883 295.137 87.8594 295.461C87.7305 295.781 87.6016 296.084 87.4727 296.369H86.7695C86.8281 296.146 86.8867 295.908 86.9453 295.654C87.0078 295.4 87.0645 295.143 87.1152 294.881C87.1699 294.619 87.2188 294.365 87.2617 294.119C87.3086 293.873 87.3457 293.645 87.373 293.434H88.4043Z" fill="#EEE"/><path d="M214.473 313V306.93C214.473 306.699 214.475 306.502 214.479 306.338C214.482 306.17 214.486 306.018 214.49 305.881C214.498 305.74 214.508 305.598 214.52 305.453C214.398 305.578 214.283 305.686 214.174 305.775C214.068 305.861 213.938 305.969 213.781 306.098L212.809 306.883L212.299 306.221L214.613 304.434H215.428V313H214.473ZM222.514 308.705C222.514 309.4 222.461 310.021 222.355 310.568C222.25 311.115 222.084 311.578 221.857 311.957C221.631 312.336 221.338 312.625 220.979 312.824C220.619 313.02 220.188 313.117 219.684 313.117C219.203 313.117 218.785 313.02 218.43 312.824C218.078 312.625 217.785 312.338 217.551 311.963C217.32 311.584 217.148 311.121 217.035 310.574C216.922 310.027 216.865 309.404 216.865 308.705C216.865 307.787 216.957 307 217.141 306.344C217.328 305.688 217.627 305.184 218.037 304.832C218.451 304.477 219 304.299 219.684 304.299C220.332 304.299 220.863 304.475 221.277 304.826C221.695 305.174 222.006 305.678 222.209 306.338C222.412 306.994 222.514 307.783 222.514 308.705ZM217.844 308.705C217.844 309.904 217.984 310.801 218.266 311.395C218.551 311.988 219.023 312.285 219.684 312.285C220.344 312.285 220.816 311.99 221.102 311.4C221.387 310.807 221.529 309.908 221.529 308.705C221.529 307.92 221.469 307.264 221.348 306.736C221.227 306.205 221.031 305.807 220.762 305.541C220.492 305.271 220.133 305.137 219.684 305.137C219.234 305.137 218.875 305.271 218.605 305.541C218.336 305.807 218.141 306.205 218.02 306.736C217.902 307.264 217.844 307.92 217.844 308.705ZM226.131 304.434L226.219 304.562C226.148 304.852 226.059 305.16 225.949 305.488C225.84 305.812 225.721 306.137 225.592 306.461C225.463 306.781 225.334 307.084 225.205 307.369H224.473C224.555 307.072 224.637 306.75 224.719 306.402C224.801 306.055 224.875 305.709 224.941 305.365C225.008 305.021 225.061 304.711 225.1 304.434H226.131ZM223.975 304.434L224.057 304.562C223.99 304.852 223.9 305.16 223.787 305.488C223.678 305.812 223.559 306.137 223.43 306.461C223.301 306.781 223.172 307.084 223.043 307.369H222.34C222.398 307.146 222.457 306.908 222.516 306.654C222.578 306.4 222.635 306.143 222.686 305.881C222.74 305.619 222.789 305.365 222.832 305.119C222.879 304.873 222.916 304.645 222.943 304.434H223.975Z" fill="#EEE"/><path d="M240.473 333V326.93C240.473 326.699 240.475 326.502 240.479 326.338C240.482 326.17 240.486 326.018 240.49 325.881C240.498 325.74 240.508 325.598 240.52 325.453C240.398 325.578 240.283 325.686 240.174 325.775C240.068 325.861 239.938 325.969 239.781 326.098L238.809 326.883L238.299 326.221L240.613 324.434H241.428V333H240.473ZM248.514 328.705C248.514 329.4 248.461 330.021 248.355 330.568C248.25 331.115 248.084 331.578 247.857 331.957C247.631 332.336 247.338 332.625 246.979 332.824C246.619 333.02 246.188 333.117 245.684 333.117C245.203 333.117 244.785 333.02 244.43 332.824C244.078 332.625 243.785 332.338 243.551 331.963C243.32 331.584 243.148 331.121 243.035 330.574C242.922 330.027 242.865 329.404 242.865 328.705C242.865 327.787 242.957 327 243.141 326.344C243.328 325.688 243.627 325.184 244.037 324.832C244.451 324.477 245 324.299 245.684 324.299C246.332 324.299 246.863 324.475 247.277 324.826C247.695 325.174 248.006 325.678 248.209 326.338C248.412 326.994 248.514 327.783 248.514 328.705ZM243.844 328.705C243.844 329.904 243.984 330.801 244.266 331.395C244.551 331.988 245.023 332.285 245.684 332.285C246.344 332.285 246.816 331.99 247.102 331.4C247.387 330.807 247.529 329.908 247.529 328.705C247.529 327.92 247.469 327.264 247.348 326.736C247.227 326.205 247.031 325.807 246.762 325.541C246.492 325.271 246.133 325.137 245.684 325.137C245.234 325.137 244.875 325.271 244.605 325.541C244.336 325.807 244.141 326.205 244.02 326.736C243.902 327.264 243.844 327.92 243.844 328.705ZM252.131 324.434L252.219 324.562C252.148 324.852 252.059 325.16 251.949 325.488C251.84 325.812 251.721 326.137 251.592 326.461C251.463 326.781 251.334 327.084 251.205 327.369H250.473C250.555 327.072 250.637 326.75 250.719 326.402C250.801 326.055 250.875 325.709 250.941 325.365C251.008 325.021 251.061 324.711 251.1 324.434H252.131ZM249.975 324.434L250.057 324.562C249.99 324.852 249.9 325.16 249.787 325.488C249.678 325.812 249.559 326.137 249.43 326.461C249.301 326.781 249.172 327.084 249.043 327.369H248.34C248.398 327.146 248.457 326.908 248.516 326.654C248.578 326.4 248.635 326.143 248.686 325.881C248.74 325.619 248.789 325.365 248.832 325.119C248.879 324.873 248.916 324.645 248.943 324.434H249.975Z" fill="#EEE"/><path d="M316.551 305.117C315.945 305.117 315.432 305.027 315.01 304.848C314.588 304.664 314.266 304.402 314.043 304.062C313.824 303.719 313.715 303.307 313.715 302.826C313.715 302.432 313.797 302.09 313.961 301.801C314.129 301.508 314.352 301.256 314.629 301.045C314.906 300.834 315.211 300.656 315.543 300.512C315.254 300.355 314.992 300.178 314.758 299.979C314.523 299.779 314.336 299.547 314.195 299.281C314.059 299.012 313.99 298.699 313.99 298.344C313.99 297.91 314.1 297.543 314.318 297.242C314.541 296.938 314.842 296.707 315.221 296.551C315.604 296.391 316.037 296.311 316.521 296.311C317.021 296.311 317.463 296.389 317.846 296.545C318.229 296.701 318.527 296.932 318.742 297.236C318.957 297.537 319.064 297.908 319.064 298.35C319.064 298.697 318.988 299.002 318.836 299.264C318.688 299.521 318.488 299.748 318.238 299.943C317.988 300.135 317.709 300.307 317.4 300.459C317.764 300.627 318.092 300.816 318.385 301.027C318.678 301.238 318.91 301.486 319.082 301.771C319.254 302.057 319.34 302.395 319.34 302.785C319.34 303.266 319.225 303.682 318.994 304.033C318.764 304.381 318.439 304.648 318.021 304.836C317.604 305.023 317.113 305.117 316.551 305.117ZM316.527 304.338C316.926 304.338 317.264 304.273 317.541 304.145C317.818 304.016 318.029 303.836 318.174 303.605C318.318 303.375 318.391 303.105 318.391 302.797C318.391 302.512 318.316 302.262 318.168 302.047C318.02 301.828 317.809 301.633 317.535 301.461C317.266 301.289 316.943 301.133 316.568 300.992L316.357 300.916C315.998 301.064 315.691 301.23 315.438 301.414C315.188 301.594 314.996 301.799 314.863 302.029C314.734 302.26 314.67 302.527 314.67 302.832C314.67 303.121 314.738 303.381 314.875 303.611C315.012 303.838 315.217 304.016 315.49 304.145C315.768 304.273 316.113 304.338 316.527 304.338ZM316.568 300.078C316.857 299.957 317.117 299.822 317.348 299.674C317.582 299.525 317.766 299.348 317.898 299.141C318.035 298.93 318.104 298.678 318.104 298.385C318.104 297.971 317.959 297.654 317.67 297.436C317.381 297.217 316.994 297.107 316.51 297.107C316.053 297.107 315.678 297.219 315.385 297.441C315.092 297.66 314.945 297.977 314.945 298.391C314.945 298.688 315.018 298.939 315.162 299.146C315.307 299.35 315.5 299.525 315.742 299.674C315.988 299.818 316.264 299.953 316.568 300.078ZM322.998 296.434L323.086 296.562C323.016 296.852 322.926 297.16 322.816 297.488C322.707 297.812 322.588 298.137 322.459 298.461C322.33 298.781 322.201 299.084 322.072 299.369H321.34C321.422 299.072 321.504 298.75 321.586 298.402C321.668 298.055 321.742 297.709 321.809 297.365C321.875 297.021 321.928 296.711 321.967 296.434H322.998ZM320.842 296.434L320.924 296.562C320.857 296.852 320.768 297.16 320.654 297.488C320.545 297.812 320.426 298.137 320.297 298.461C320.168 298.781 320.039 299.084 319.91 299.369H319.207C319.266 299.146 319.324 298.908 319.383 298.654C319.445 298.4 319.502 298.143 319.553 297.881C319.607 297.619 319.656 297.365 319.699 297.119C319.746 296.873 319.783 296.645 319.811 296.434H320.842Z" fill="#EEE"/><path d="M383.551 333.117C382.945 333.117 382.432 333.027 382.01 332.848C381.588 332.664 381.266 332.402 381.043 332.062C380.824 331.719 380.715 331.307 380.715 330.826C380.715 330.432 380.797 330.09 380.961 329.801C381.129 329.508 381.352 329.256 381.629 329.045C381.906 328.834 382.211 328.656 382.543 328.512C382.254 328.355 381.992 328.178 381.758 327.979C381.523 327.779 381.336 327.547 381.195 327.281C381.059 327.012 380.99 326.699 380.99 326.344C380.99 325.91 381.1 325.543 381.318 325.242C381.541 324.938 381.842 324.707 382.221 324.551C382.604 324.391 383.037 324.311 383.521 324.311C384.021 324.311 384.463 324.389 384.846 324.545C385.229 324.701 385.527 324.932 385.742 325.236C385.957 325.537 386.064 325.908 386.064 326.35C386.064 326.697 385.988 327.002 385.836 327.264C385.688 327.521 385.488 327.748 385.238 327.943C384.988 328.135 384.709 328.307 384.4 328.459C384.764 328.627 385.092 328.816 385.385 329.027C385.678 329.238 385.91 329.486 386.082 329.771C386.254 330.057 386.34 330.395 386.34 330.785C386.34 331.266 386.225 331.682 385.994 332.033C385.764 332.381 385.439 332.648 385.021 332.836C384.604 333.023 384.113 333.117 383.551 333.117ZM383.527 332.338C383.926 332.338 384.264 332.273 384.541 332.145C384.818 332.016 385.029 331.836 385.174 331.605C385.318 331.375 385.391 331.105 385.391 330.797C385.391 330.512 385.316 330.262 385.168 330.047C385.02 329.828 384.809 329.633 384.535 329.461C384.266 329.289 383.943 329.133 383.568 328.992L383.357 328.916C382.998 329.064 382.691 329.23 382.438 329.414C382.188 329.594 381.996 329.799 381.863 330.029C381.734 330.26 381.67 330.527 381.67 330.832C381.67 331.121 381.738 331.381 381.875 331.611C382.012 331.838 382.217 332.016 382.49 332.145C382.768 332.273 383.113 332.338 383.527 332.338ZM383.568 328.078C383.857 327.957 384.117 327.822 384.348 327.674C384.582 327.525 384.766 327.348 384.898 327.141C385.035 326.93 385.104 326.678 385.104 326.385C385.104 325.971 384.959 325.654 384.67 325.436C384.381 325.217 383.994 325.107 383.51 325.107C383.053 325.107 382.678 325.219 382.385 325.441C382.092 325.66 381.945 325.977 381.945 326.391C381.945 326.688 382.018 326.939 382.162 327.146C382.307 327.35 382.5 327.525 382.742 327.674C382.988 327.818 383.264 327.953 383.568 328.078ZM389.998 324.434L390.086 324.562C390.016 324.852 389.926 325.16 389.816 325.488C389.707 325.812 389.588 326.137 389.459 326.461C389.33 326.781 389.201 327.084 389.072 327.369H388.34C388.422 327.072 388.504 326.75 388.586 326.402C388.668 326.055 388.742 325.709 388.809 325.365C388.875 325.021 388.928 324.711 388.967 324.434H389.998ZM387.842 324.434L387.924 324.562C387.857 324.852 387.768 325.16 387.654 325.488C387.545 325.812 387.426 326.137 387.297 326.461C387.168 326.781 387.039 327.084 386.91 327.369H386.207C386.266 327.146 386.324 326.908 386.383 326.654C386.445 326.4 386.502 326.143 386.553 325.881C386.607 325.619 386.656 325.365 386.699 325.119C386.746 324.873 386.783 324.645 386.811 324.434H387.842Z" fill="#EEE"/><path d="M353.473 282V275.93C353.473 275.699 353.475 275.502 353.479 275.338C353.482 275.17 353.486 275.018 353.49 274.881C353.498 274.74 353.508 274.598 353.52 274.453C353.398 274.578 353.283 274.686 353.174 274.775C353.068 274.861 352.938 274.969 352.781 275.098L351.809 275.883L351.299 275.221L353.613 273.434H354.428V282H353.473ZM355.865 278.338C355.865 277.822 355.9 277.318 355.971 276.826C356.045 276.334 356.168 275.877 356.34 275.455C356.512 275.029 356.744 274.656 357.037 274.336C357.334 274.016 357.703 273.766 358.145 273.586C358.59 273.402 359.123 273.311 359.744 273.311C359.924 273.311 360.113 273.32 360.312 273.34C360.516 273.355 360.684 273.383 360.816 273.422V274.26C360.672 274.209 360.508 274.172 360.324 274.148C360.141 274.125 359.955 274.113 359.768 274.113C359.045 274.113 358.475 274.271 358.057 274.588C357.639 274.9 357.336 275.328 357.148 275.871C356.965 276.41 356.859 277.02 356.832 277.699H356.902C357.023 277.504 357.178 277.328 357.365 277.172C357.553 277.012 357.779 276.885 358.045 276.791C358.314 276.697 358.627 276.65 358.982 276.65C359.482 276.65 359.918 276.752 360.289 276.955C360.664 277.158 360.953 277.453 361.156 277.84C361.363 278.227 361.467 278.695 361.467 279.246C361.467 279.836 361.355 280.346 361.133 280.775C360.914 281.205 360.602 281.537 360.195 281.771C359.793 282.002 359.314 282.117 358.76 282.117C358.342 282.117 357.955 282.037 357.6 281.877C357.248 281.717 356.941 281.479 356.68 281.162C356.422 280.846 356.221 280.453 356.076 279.984C355.936 279.512 355.865 278.963 355.865 278.338ZM358.748 281.297C359.275 281.297 359.699 281.127 360.02 280.787C360.34 280.447 360.5 279.934 360.5 279.246C360.5 278.684 360.357 278.24 360.072 277.916C359.787 277.588 359.359 277.422 358.789 277.418C358.398 277.414 358.059 277.494 357.77 277.658C357.48 277.818 357.256 278.023 357.096 278.273C356.936 278.52 356.855 278.77 356.855 279.023C356.855 279.281 356.893 279.543 356.967 279.809C357.045 280.074 357.16 280.32 357.312 280.547C357.469 280.773 357.666 280.955 357.904 281.092C358.143 281.229 358.424 281.297 358.748 281.297ZM364.979 273.434L365.066 273.562C364.996 273.852 364.906 274.16 364.797 274.488C364.688 274.812 364.568 275.137 364.439 275.461C364.311 275.781 364.182 276.084 364.053 276.369H363.32C363.402 276.072 363.484 275.75 363.566 275.402C363.648 275.055 363.723 274.709 363.789 274.365C363.855 274.021 363.908 273.711 363.947 273.434H364.979ZM362.822 273.434L362.904 273.562C362.838 273.852 362.748 274.16 362.635 274.488C362.525 274.812 362.406 275.137 362.277 275.461C362.148 275.781 362.02 276.084 361.891 276.369H361.188C361.246 276.146 361.305 275.908 361.363 275.654C361.426 275.4 361.482 275.143 361.533 274.881C361.588 274.619 361.637 274.365 361.68 274.119C361.727 273.873 361.764 273.645 361.791 273.434H362.822Z" fill="#EEE"/><path d="M399.43 199V197.014H395.281V196.193L399.365 190.387H400.373V196.135H401.656V197.014H400.373V199H399.43ZM399.43 196.135V193.334C399.43 193.049 399.43 192.793 399.43 192.566C399.434 192.34 399.439 192.137 399.447 191.957C399.455 191.777 399.465 191.615 399.477 191.471H399.43C399.344 191.627 399.238 191.803 399.113 191.998C398.988 192.193 398.877 192.359 398.779 192.496L396.248 196.135H399.43ZM404.846 190.434L404.934 190.562C404.863 190.852 404.773 191.16 404.664 191.488C404.555 191.812 404.436 192.137 404.307 192.461C404.178 192.781 404.049 193.084 403.92 193.369H403.188C403.27 193.072 403.352 192.75 403.434 192.402C403.516 192.055 403.59 191.709 403.656 191.365C403.723 191.021 403.775 190.711 403.814 190.434H404.846ZM402.689 190.434L402.771 190.562C402.705 190.852 402.615 191.16 402.502 191.488C402.393 191.812 402.273 192.137 402.145 192.461C402.016 192.781 401.887 193.084 401.758 193.369H401.055C401.113 193.146 401.172 192.908 401.23 192.654C401.293 192.4 401.35 192.143 401.4 191.881C401.455 191.619 401.504 191.365 401.547 191.119C401.594 190.873 401.631 190.645 401.658 190.434H402.689Z" fill="#EEE"/><path d="M412.473 125V118.93C412.473 118.699 412.475 118.502 412.479 118.338C412.482 118.17 412.486 118.018 412.49 117.881C412.498 117.74 412.508 117.598 412.52 117.453C412.398 117.578 412.283 117.686 412.174 117.775C412.068 117.861 411.938 117.969 411.781 118.098L410.809 118.883L410.299 118.221L412.613 116.434H413.428V125H412.473ZM418.135 116.434L418.223 116.562C418.152 116.852 418.062 117.16 417.953 117.488C417.844 117.812 417.725 118.137 417.596 118.461C417.467 118.781 417.338 119.084 417.209 119.369H416.477C416.559 119.072 416.641 118.75 416.723 118.402C416.805 118.055 416.879 117.709 416.945 117.365C417.012 117.021 417.064 116.711 417.104 116.434H418.135ZM415.979 116.434L416.061 116.562C415.994 116.852 415.904 117.16 415.791 117.488C415.682 117.812 415.562 118.137 415.434 118.461C415.305 118.781 415.176 119.084 415.047 119.369H414.344C414.402 119.146 414.461 118.908 414.52 118.654C414.582 118.4 414.639 118.143 414.689 117.881C414.744 117.619 414.793 117.365 414.836 117.119C414.883 116.873 414.92 116.645 414.947 116.434H415.979Z" fill="#EEE"/><path d="M408.473 75V68.9297C408.473 68.6992 408.475 68.502 408.479 68.3379C408.482 68.1699 408.486 68.0176 408.49 67.8809C408.498 67.7402 408.508 67.5977 408.52 67.4531C408.398 67.5781 408.283 67.6855 408.174 67.7754C408.068 67.8613 407.938 67.9688 407.781 68.0977L406.809 68.8828L406.299 68.2207L408.613 66.4336H409.428V75H408.473ZM414.621 75V73.0137H410.473V72.1934L414.557 66.3867H415.564V72.1348H416.848V73.0137H415.564V75H414.621ZM414.621 72.1348V69.334C414.621 69.0488 414.621 68.793 414.621 68.5664C414.625 68.3398 414.631 68.1367 414.639 67.957C414.646 67.7773 414.656 67.6152 414.668 67.4707H414.621C414.535 67.627 414.43 67.8027 414.305 67.998C414.18 68.1934 414.068 68.3594 413.971 68.4961L411.439 72.1348H414.621ZM420.037 66.4336L420.125 66.5625C420.055 66.8516 419.965 67.1602 419.855 67.4883C419.746 67.8125 419.627 68.1367 419.498 68.4609C419.369 68.7812 419.24 69.084 419.111 69.3691H418.379C418.461 69.0723 418.543 68.75 418.625 68.4023C418.707 68.0547 418.781 67.709 418.848 67.3652C418.914 67.0215 418.967 66.7109 419.006 66.4336H420.037ZM417.881 66.4336L417.963 66.5625C417.896 66.8516 417.807 67.1602 417.693 67.4883C417.584 67.8125 417.465 68.1367 417.336 68.4609C417.207 68.7812 417.078 69.084 416.949 69.3691H416.246C416.305 69.1465 416.363 68.9082 416.422 68.6543C416.484 68.4004 416.541 68.1426 416.592 67.8809C416.646 67.6191 416.695 67.3652 416.738 67.1191C416.785 66.873 416.822 66.6445 416.85 66.4336H417.881Z" fill="#EEE"/><path d="M405.473 249V242.93C405.473 242.699 405.475 242.502 405.479 242.338C405.482 242.17 405.486 242.018 405.49 241.881C405.498 241.74 405.508 241.598 405.52 241.453C405.398 241.578 405.283 241.686 405.174 241.775C405.068 241.861 404.938 241.969 404.781 242.098L403.809 242.883L403.299 242.221L405.613 240.434H406.428V249H405.473ZM411.621 249V247.014H407.473V246.193L411.557 240.387H412.564V246.135H413.848V247.014H412.564V249H411.621ZM411.621 246.135V243.334C411.621 243.049 411.621 242.793 411.621 242.566C411.625 242.34 411.631 242.137 411.639 241.957C411.646 241.777 411.656 241.615 411.668 241.471H411.621C411.535 241.627 411.43 241.803 411.305 241.998C411.18 242.193 411.068 242.359 410.971 242.496L408.439 246.135H411.621ZM417.037 240.434L417.125 240.562C417.055 240.852 416.965 241.16 416.855 241.488C416.746 241.812 416.627 242.137 416.498 242.461C416.369 242.781 416.24 243.084 416.111 243.369H415.379C415.461 243.072 415.543 242.75 415.625 242.402C415.707 242.055 415.781 241.709 415.848 241.365C415.914 241.021 415.967 240.711 416.006 240.434H417.037ZM414.881 240.434L414.963 240.562C414.896 240.852 414.807 241.16 414.693 241.488C414.584 241.812 414.465 242.137 414.336 242.461C414.207 242.781 414.078 243.084 413.949 243.369H413.246C413.305 243.146 413.363 242.908 413.422 242.654C413.484 242.4 413.541 242.143 413.592 241.881C413.646 241.619 413.695 241.365 413.738 241.119C413.785 240.873 413.822 240.645 413.85 240.434H414.881Z" fill="#EEE"/></svg>