<svg width="264" height="223" viewBox="0 0 264 223" fill="none" xmlns="http://www.w3.org/2000/svg"><path fill="currentColor" d="M8 215H256V223H8z"/><path transform="rotate(-90 0 223)" fill="currentColor" d="M0 223H223V231H0z"/><path fill="currentColor" d="M8 0H256V8H8z"/><path transform="rotate(-90 256 40)" fill="currentColor" d="M256 40H296V48H256z"/><path transform="rotate(-90 256 106)" fill="currentColor" d="M256 106H273V114H256z"/><path transform="rotate(-90 256 223)" fill="currentColor" d="M256 223H381V231H256z"/><path d="M76 215L235 215L235 200L76 200L76 215Z" fill="#F9F9F9"/><path d="M153 200L235 200L235 194L153 194L153 200Z" fill="#F9F9F9"/><path d="M153 210L235 210L235 200L153 200L153 210Z" fill="#F6F6F6"/><path d="M7.99999 215L25 215L25 98L8 98L7.99999 215Z" fill="#F9F9F9"/><path d="M188.674 203.338C188.674 202.822 188.709 202.318 188.779 201.826C188.854 201.334 188.977 200.877 189.148 200.455C189.32 200.029 189.553 199.656 189.846 199.336C190.143 199.016 190.512 198.766 190.953 198.586C191.398 198.402 191.932 198.311 192.553 198.311C192.732 198.311 192.922 198.32 193.121 198.34C193.324 198.355 193.492 198.383 193.625 198.422V199.26C193.48 199.209 193.316 199.172 193.133 199.148C192.949 199.125 192.764 199.113 192.576 199.113C191.854 199.113 191.283 199.271 190.865 199.588C190.447 199.9 190.145 200.328 189.957 200.871C189.773 201.41 189.668 202.02 189.641 202.699H189.711C189.832 202.504 189.986 202.328 190.174 202.172C190.361 202.012 190.588 201.885 190.854 201.791C191.123 201.697 191.436 201.65 191.791 201.65C192.291 201.65 192.727 201.752 193.098 201.955C193.473 202.158 193.762 202.453 193.965 202.84C194.172 203.227 194.275 203.695 194.275 204.246C194.275 204.836 194.164 205.346 193.941 205.775C193.723 206.205 193.41 206.537 193.004 206.771C192.602 207.002 192.123 207.117 191.568 207.117C191.15 207.117 190.764 207.037 190.408 206.877C190.057 206.717 189.75 206.479 189.488 206.162C189.23 205.846 189.029 205.453 188.885 204.984C188.744 204.512 188.674 203.963 188.674 203.338ZM191.557 206.297C192.084 206.297 192.508 206.127 192.828 205.787C193.148 205.447 193.309 204.934 193.309 204.246C193.309 203.684 193.166 203.24 192.881 202.916C192.596 202.588 192.168 202.422 191.598 202.418C191.207 202.414 190.867 202.494 190.578 202.658C190.289 202.818 190.064 203.023 189.904 203.273C189.744 203.52 189.664 203.77 189.664 204.023C189.664 204.281 189.701 204.543 189.775 204.809C189.854 205.074 189.969 205.32 190.121 205.547C190.277 205.773 190.475 205.955 190.713 206.092C190.951 206.229 191.232 206.297 191.557 206.297ZM197.787 198.434L197.875 198.562C197.805 198.852 197.715 199.16 197.605 199.488C197.496 199.812 197.377 200.137 197.248 200.461C197.119 200.781 196.99 201.084 196.861 201.369H196.129C196.211 201.072 196.293 200.75 196.375 200.402C196.457 200.055 196.531 199.709 196.598 199.365C196.664 199.021 196.717 198.711 196.756 198.434H197.787ZM195.631 198.434L195.713 198.562C195.646 198.852 195.557 199.16 195.443 199.488C195.334 199.812 195.215 200.137 195.086 200.461C194.957 200.781 194.828 201.084 194.699 201.369H193.996C194.055 201.146 194.113 200.908 194.172 200.654C194.234 200.4 194.291 200.143 194.342 199.881C194.396 199.619 194.445 199.365 194.488 199.119C194.535 198.873 194.572 198.645 194.6 198.434H195.631Z" fill="#EEE"/><path d="M80.4727 213V206.93C80.4727 206.699 80.4746 206.502 80.4785 206.338C80.4825 206.17 80.4864 206.018 80.4903 205.881C80.4981 205.74 80.5078 205.598 80.5196 205.453C80.3985 205.578 80.2832 205.686 80.1739 205.775C80.0684 205.861 79.9375 205.969 79.7813 206.098L78.8086 206.883L78.2989 206.221L80.6133 204.434H81.4278V213H80.4727ZM86.1348 204.434L86.2227 204.562C86.1524 204.852 86.0625 205.16 85.9532 205.488C85.8438 205.812 85.7246 206.137 85.5957 206.461C85.4668 206.781 85.3379 207.084 85.209 207.369H84.4766C84.5586 207.072 84.6407 206.75 84.7227 206.402C84.8047 206.055 84.8789 205.709 84.9453 205.365C85.0117 205.021 85.0645 204.711 85.1035 204.434H86.1348ZM83.9785 204.434L84.0606 204.562C83.9942 204.852 83.9043 205.16 83.791 205.488C83.6817 205.812 83.5625 206.137 83.4336 206.461C83.3047 206.781 83.1758 207.084 83.0469 207.369H82.3438C82.4024 207.146 82.461 206.908 82.5196 206.654C82.5821 206.4 82.6387 206.143 82.6895 205.881C82.7442 205.619 82.793 205.365 82.836 205.119C82.8828 204.873 82.92 204.645 82.9473 204.434H83.9785Z" fill="#EEE"/><path d="M143.473 212V205.93C143.473 205.699 143.475 205.502 143.479 205.338C143.482 205.17 143.486 205.018 143.49 204.881C143.498 204.74 143.508 204.598 143.52 204.453C143.398 204.578 143.283 204.686 143.174 204.775C143.068 204.861 142.938 204.969 142.781 205.098L141.809 205.883L141.299 205.221L143.613 203.434H144.428V212H143.473ZM145.654 212V211.186L147.945 208.859C148.371 208.43 148.729 208.047 149.018 207.711C149.311 207.375 149.533 207.045 149.686 206.721C149.838 206.393 149.914 206.033 149.914 205.643C149.914 205.158 149.77 204.789 149.48 204.535C149.195 204.277 148.82 204.148 148.355 204.148C147.941 204.148 147.574 204.219 147.254 204.359C146.938 204.5 146.615 204.699 146.287 204.957L145.766 204.301C145.992 204.109 146.238 203.939 146.504 203.791C146.77 203.643 147.057 203.525 147.365 203.439C147.674 203.354 148.004 203.311 148.355 203.311C148.879 203.311 149.332 203.402 149.715 203.586C150.098 203.77 150.393 204.031 150.6 204.371C150.807 204.711 150.91 205.115 150.91 205.584C150.91 206.037 150.82 206.459 150.641 206.85C150.461 207.236 150.209 207.621 149.885 208.004C149.564 208.383 149.186 208.785 148.748 209.211L146.885 211.068V211.109H151.262V212H145.654ZM154.756 203.434L154.844 203.562C154.773 203.852 154.684 204.16 154.574 204.488C154.465 204.812 154.346 205.137 154.217 205.461C154.088 205.781 153.959 206.084 153.83 206.369H153.098C153.18 206.072 153.262 205.75 153.344 205.402C153.426 205.055 153.5 204.709 153.566 204.365C153.633 204.021 153.686 203.711 153.725 203.434H154.756ZM152.6 203.434L152.682 203.562C152.615 203.852 152.525 204.16 152.412 204.488C152.303 204.812 152.184 205.137 152.055 205.461C151.926 205.781 151.797 206.084 151.668 206.369H150.965C151.023 206.146 151.082 205.908 151.141 205.654C151.203 205.4 151.26 205.143 151.311 204.881C151.365 204.619 151.414 204.365 151.457 204.119C151.504 203.873 151.541 203.645 151.568 203.434H152.6Z" fill="#EEE"/><path d="M220.463 210V209.186L222.754 206.859C223.18 206.43 223.537 206.047 223.826 205.711C224.119 205.375 224.342 205.045 224.494 204.721C224.646 204.393 224.723 204.033 224.723 203.643C224.723 203.158 224.578 202.789 224.289 202.535C224.004 202.277 223.629 202.148 223.164 202.148C222.75 202.148 222.383 202.219 222.062 202.359C221.746 202.5 221.424 202.699 221.096 202.957L220.574 202.301C220.801 202.109 221.047 201.939 221.312 201.791C221.578 201.643 221.865 201.525 222.174 201.439C222.482 201.354 222.812 201.311 223.164 201.311C223.688 201.311 224.141 201.402 224.523 201.586C224.906 201.77 225.201 202.031 225.408 202.371C225.615 202.711 225.719 203.115 225.719 203.584C225.719 204.037 225.629 204.459 225.449 204.85C225.27 205.236 225.018 205.621 224.693 206.004C224.373 206.383 223.994 206.785 223.557 207.211L221.693 209.068V209.109H226.07V210H220.463ZM229.564 201.434L229.652 201.562C229.582 201.852 229.492 202.16 229.383 202.488C229.273 202.812 229.154 203.137 229.025 203.461C228.896 203.781 228.768 204.084 228.639 204.369H227.906C227.988 204.072 228.07 203.75 228.152 203.402C228.234 203.055 228.309 202.709 228.375 202.365C228.441 202.021 228.494 201.711 228.533 201.434H229.564ZM227.408 201.434L227.49 201.562C227.424 201.852 227.334 202.16 227.221 202.488C227.111 202.812 226.992 203.137 226.863 203.461C226.734 203.781 226.605 204.084 226.477 204.369H225.773C225.832 204.146 225.891 203.908 225.949 203.654C226.012 203.4 226.068 203.143 226.119 202.881C226.174 202.619 226.223 202.365 226.266 202.119C226.312 201.873 226.35 201.645 226.377 201.434H227.408Z" fill="#EEE"/><path d="M13.4727 115V108.93C13.4727 108.699 13.4746 108.502 13.4785 108.338C13.4824 108.17 13.4863 108.018 13.4902 107.881C13.498 107.74 13.5078 107.598 13.5195 107.453C13.3984 107.578 13.2832 107.686 13.1738 107.775C13.0684 107.861 12.9375 107.969 12.7812 108.098L11.8086 108.883L11.2988 108.221L13.6133 106.434H14.4277V115H13.4727ZM19.1348 106.434L19.2227 106.562C19.1523 106.852 19.0625 107.16 18.9531 107.488C18.8438 107.812 18.7246 108.137 18.5957 108.461C18.4668 108.781 18.3379 109.084 18.209 109.369H17.4766C17.5586 109.072 17.6406 108.75 17.7227 108.402C17.8047 108.055 17.8789 107.709 17.9453 107.365C18.0117 107.021 18.0645 106.711 18.1035 106.434H19.1348ZM16.9785 106.434L17.0605 106.562C16.9941 106.852 16.9043 107.16 16.791 107.488C16.6816 107.812 16.5625 108.137 16.4336 108.461C16.3047 108.781 16.1758 109.084 16.0469 109.369H15.3438C15.4023 109.146 15.4609 108.908 15.5195 108.654C15.582 108.4 15.6387 108.143 15.6895 107.881C15.7441 107.619 15.793 107.365 15.8359 107.119C15.8828 106.873 15.9199 106.645 15.9473 106.434H16.9785Z" fill="#EEE"/><path d="M16.5508 159.117C15.9453 159.117 15.4316 159.027 15.0098 158.848C14.5879 158.664 14.2656 158.402 14.043 158.062C13.8242 157.719 13.7148 157.307 13.7148 156.826C13.7148 156.432 13.7969 156.09 13.9609 155.801C14.1289 155.508 14.3516 155.256 14.6289 155.045C14.9062 154.834 15.2109 154.656 15.543 154.512C15.2539 154.355 14.9922 154.178 14.7578 153.979C14.5234 153.779 14.3359 153.547 14.1953 153.281C14.0586 153.012 13.9902 152.699 13.9902 152.344C13.9902 151.91 14.0996 151.543 14.3184 151.242C14.541 150.938 14.8418 150.707 15.2207 150.551C15.6035 150.391 16.0371 150.311 16.5215 150.311C17.0215 150.311 17.4629 150.389 17.8457 150.545C18.2285 150.701 18.5273 150.932 18.7422 151.236C18.957 151.537 19.0645 151.908 19.0645 152.35C19.0645 152.697 18.9883 153.002 18.8359 153.264C18.6875 153.521 18.4883 153.748 18.2383 153.943C17.9883 154.135 17.709 154.307 17.4004 154.459C17.7637 154.627 18.0918 154.816 18.3848 155.027C18.6777 155.238 18.9102 155.486 19.082 155.771C19.2539 156.057 19.3398 156.395 19.3398 156.785C19.3398 157.266 19.2246 157.682 18.9941 158.033C18.7637 158.381 18.4395 158.648 18.0215 158.836C17.6035 159.023 17.1133 159.117 16.5508 159.117ZM16.5273 158.338C16.9258 158.338 17.2637 158.273 17.541 158.145C17.8184 158.016 18.0293 157.836 18.1738 157.605C18.3184 157.375 18.3906 157.105 18.3906 156.797C18.3906 156.512 18.3164 156.262 18.168 156.047C18.0195 155.828 17.8086 155.633 17.5352 155.461C17.2656 155.289 16.9434 155.133 16.5684 154.992L16.3574 154.916C15.998 155.064 15.6914 155.23 15.4375 155.414C15.1875 155.594 14.9961 155.799 14.8633 156.029C14.7344 156.26 14.6699 156.527 14.6699 156.832C14.6699 157.121 14.7383 157.381 14.875 157.611C15.0117 157.838 15.2168 158.016 15.4902 158.145C15.7676 158.273 16.1133 158.338 16.5273 158.338ZM16.5684 154.078C16.8574 153.957 17.1172 153.822 17.3477 153.674C17.582 153.525 17.7656 153.348 17.8984 153.141C18.0352 152.93 18.1035 152.678 18.1035 152.385C18.1035 151.971 17.959 151.654 17.6699 151.436C17.3809 151.217 16.9941 151.107 16.5098 151.107C16.0527 151.107 15.6777 151.219 15.3848 151.441C15.0918 151.66 14.9453 151.977 14.9453 152.391C14.9453 152.688 15.0176 152.939 15.1621 153.146C15.3066 153.35 15.5 153.525 15.7422 153.674C15.9883 153.818 16.2637 153.953 16.5684 154.078ZM22.998 150.434L23.0859 150.562C23.0156 150.852 22.9258 151.16 22.8164 151.488C22.707 151.812 22.5879 152.137 22.459 152.461C22.3301 152.781 22.2012 153.084 22.0723 153.369H21.3398C21.4219 153.072 21.5039 152.75 21.5859 152.402C21.668 152.055 21.7422 151.709 21.8086 151.365C21.875 151.021 21.9277 150.711 21.9668 150.434H22.998ZM20.8418 150.434L20.9238 150.562C20.8574 150.852 20.7676 151.16 20.6543 151.488C20.5449 151.812 20.4258 152.137 20.2969 152.461C20.168 152.781 20.0391 153.084 19.9102 153.369H19.207C19.2656 153.146 19.3242 152.908 19.3828 152.654C19.4453 152.4 19.502 152.143 19.5527 151.881C19.6074 151.619 19.6562 151.365 19.6992 151.119C19.7461 150.873 19.7832 150.645 19.8105 150.434H20.8418Z" fill="#EEE"/></svg>