<svg width="288" height="316" viewBox="0 0 288 316" fill="none" xmlns="http://www.w3.org/2000/svg"><path fill="currentColor" d="M8 308H280V316H8z"/><path transform="rotate(-90 0 316)" fill="currentColor" d="M0 316H316V324H0z"/><path fill="currentColor" d="M120 0H288V8H120z"/><path fill="currentColor" d="M8 0H25V8H8z"/><path transform="rotate(-90 280 68)" fill="currentColor" d="M280 68H340V76H280z"/><path transform="rotate(-90 280 316)" fill="currentColor" d="M280 316H348V324H280z"/><path d="M8 308L252 308L252 238L8.00001 238L8 308Z" fill="#F9F9F9"/><path d="M280 8H192V37H280V8Z" fill="#F9F9F9"/><path d="M27.3208 274.454L209.97 274.454L209.97 238L27.3208 238L27.3208 274.454Z" fill="#F6F6F6"/><path d="M178.029 280C169.018 280 161.712 286.329 161.712 294.136C161.712 301.943 169.018 308.272 178.029 308.272C187.041 308.272 194.346 301.943 194.346 294.136C194.346 286.329 187.041 280 178.029 280Z" fill="#F6F6F6"/><path d="M117.706 280C108.695 280 101.389 286.329 101.389 294.136C101.389 301.943 108.695 308.272 117.706 308.272C126.718 308.272 134.023 301.943 134.023 294.136C134.023 286.329 126.718 280 117.706 280Z" fill="#F6F6F6"/><path d="M57.3339 280C48.3223 280 41.017 286.329 41.017 294.136C41.017 301.943 48.3223 308.272 57.3339 308.272C66.3454 308.272 73.6507 301.943 73.6507 294.136C73.6507 286.329 66.3454 280 57.3339 280Z" fill="#F6F6F6"/><path d="M108.473 253V246.93C108.473 246.699 108.475 246.502 108.479 246.338C108.482 246.17 108.486 246.018 108.49 245.881C108.498 245.74 108.508 245.598 108.52 245.453C108.398 245.578 108.283 245.686 108.174 245.775C108.068 245.861 107.938 245.969 107.781 246.098L106.809 246.883L106.299 246.221L108.613 244.434H109.428V253H108.473ZM110.654 253V252.186L112.945 249.859C113.371 249.43 113.729 249.047 114.018 248.711C114.311 248.375 114.533 248.045 114.686 247.721C114.838 247.393 114.914 247.033 114.914 246.643C114.914 246.158 114.77 245.789 114.48 245.535C114.195 245.277 113.82 245.148 113.355 245.148C112.941 245.148 112.574 245.219 112.254 245.359C111.938 245.5 111.615 245.699 111.287 245.957L110.766 245.301C110.992 245.109 111.238 244.939 111.504 244.791C111.77 244.643 112.057 244.525 112.365 244.439C112.674 244.354 113.004 244.311 113.355 244.311C113.879 244.311 114.332 244.402 114.715 244.586C115.098 244.77 115.393 245.031 115.6 245.371C115.807 245.711 115.91 246.115 115.91 246.584C115.91 247.037 115.82 247.459 115.641 247.85C115.461 248.236 115.209 248.621 114.885 249.004C114.564 249.383 114.186 249.785 113.748 250.211L111.885 252.068V252.109H116.262V253H110.654ZM119.756 244.434L119.844 244.562C119.773 244.852 119.684 245.16 119.574 245.488C119.465 245.812 119.346 246.137 119.217 246.461C119.088 246.781 118.959 247.084 118.83 247.369H118.098C118.18 247.072 118.262 246.75 118.344 246.402C118.426 246.055 118.5 245.709 118.566 245.365C118.633 245.021 118.686 244.711 118.725 244.434H119.756ZM117.6 244.434L117.682 244.562C117.615 244.852 117.525 245.16 117.412 245.488C117.303 245.812 117.184 246.137 117.055 246.461C116.926 246.781 116.797 247.084 116.668 247.369H115.965C116.023 247.146 116.082 246.908 116.141 246.654C116.203 246.4 116.26 246.143 116.311 245.881C116.365 245.619 116.414 245.365 116.457 245.119C116.504 244.873 116.541 244.645 116.568 244.434H117.6Z" fill="#EEE"/><path d="M56.8594 292.432C56.8594 293.006 56.6953 293.467 56.3672 293.814C56.043 294.158 55.6133 294.383 55.0781 294.488V294.535C55.7578 294.621 56.2676 294.84 56.6074 295.191C56.9512 295.543 57.123 296.004 57.123 296.574C57.123 297.07 57.0059 297.51 56.7715 297.893C56.541 298.275 56.1855 298.576 55.7051 298.795C55.2285 299.01 54.6172 299.117 53.8711 299.117C53.418 299.117 52.998 299.08 52.6113 299.006C52.2285 298.936 51.8613 298.816 51.5098 298.648V297.734C51.8652 297.91 52.252 298.049 52.6699 298.15C53.0879 298.248 53.4922 298.297 53.8828 298.297C54.4023 298.297 54.8242 298.227 55.1484 298.086C55.4766 297.945 55.7168 297.746 55.8691 297.488C56.0215 297.227 56.0977 296.916 56.0977 296.557C56.0977 296.186 56 295.887 55.8047 295.66C55.6133 295.43 55.3359 295.262 54.9727 295.156C54.6094 295.047 54.1738 294.992 53.666 294.992H52.8164V294.16H53.6777C54.1426 294.16 54.5371 294.092 54.8613 293.955C55.1855 293.818 55.4316 293.627 55.5996 293.381C55.7715 293.131 55.8574 292.836 55.8574 292.496C55.8574 292.062 55.7129 291.729 55.4238 291.494C55.1348 291.256 54.7422 291.137 54.2461 291.137C53.7852 291.137 53.3848 291.205 53.0449 291.342C52.709 291.475 52.3789 291.65 52.0547 291.869L51.5625 291.201C51.875 290.959 52.2559 290.75 52.7051 290.574C53.1543 290.398 53.6641 290.311 54.2344 290.311C55.1094 290.311 55.7656 290.51 56.2031 290.908C56.6406 291.303 56.8594 291.811 56.8594 292.432ZM60.7402 290.434L60.8281 290.562C60.7578 290.852 60.668 291.16 60.5586 291.488C60.4492 291.812 60.3301 292.137 60.2012 292.461C60.0723 292.781 59.9434 293.084 59.8145 293.369H59.082C59.1641 293.072 59.2461 292.75 59.3281 292.402C59.4102 292.055 59.4844 291.709 59.5508 291.365C59.6172 291.021 59.6699 290.711 59.709 290.434H60.7402ZM58.584 290.434L58.666 290.562C58.5996 290.852 58.5098 291.16 58.3965 291.488C58.2871 291.812 58.168 292.137 58.0391 292.461C57.9102 292.781 57.7812 293.084 57.6523 293.369H56.9492C57.0078 293.146 57.0664 292.908 57.125 292.654C57.1875 292.4 57.2441 292.143 57.2949 291.881C57.3496 291.619 57.3984 291.365 57.4414 291.119C57.4883 290.873 57.5254 290.645 57.5527 290.434H58.584Z" fill="#EEE"/><path d="M196.463 28V27.1855L198.754 24.8594C199.18 24.4297 199.537 24.0469 199.826 23.7109C200.119 23.375 200.342 23.0449 200.494 22.7207C200.646 22.3926 200.723 22.0332 200.723 21.6426C200.723 21.1582 200.578 20.7891 200.289 20.5352C200.004 20.2773 199.629 20.1484 199.164 20.1484C198.75 20.1484 198.383 20.2188 198.062 20.3594C197.746 20.5 197.424 20.6992 197.096 20.957L196.574 20.3008C196.801 20.1094 197.047 19.9395 197.312 19.791C197.578 19.6426 197.865 19.5254 198.174 19.4395C198.482 19.3535 198.812 19.3105 199.164 19.3105C199.688 19.3105 200.141 19.4023 200.523 19.5859C200.906 19.7695 201.201 20.0312 201.408 20.3711C201.615 20.7109 201.719 21.1152 201.719 21.584C201.719 22.0371 201.629 22.459 201.449 22.8496C201.27 23.2363 201.018 23.6211 200.693 24.0039C200.373 24.3828 199.994 24.7852 199.557 25.2109L197.693 27.0684V27.1094H202.07V28H196.463ZM205.564 19.4336L205.652 19.5625C205.582 19.8516 205.492 20.1602 205.383 20.4883C205.273 20.8125 205.154 21.1367 205.025 21.4609C204.896 21.7812 204.768 22.084 204.639 22.3691H203.906C203.988 22.0723 204.07 21.75 204.152 21.4023C204.234 21.0547 204.309 20.709 204.375 20.3652C204.441 20.0215 204.494 19.7109 204.533 19.4336H205.564ZM203.408 19.4336L203.49 19.5625C203.424 19.8516 203.334 20.1602 203.221 20.4883C203.111 20.8125 202.992 21.1367 202.863 21.4609C202.734 21.7812 202.605 22.084 202.477 22.3691H201.773C201.832 22.1465 201.891 21.9082 201.949 21.6543C202.012 21.4004 202.068 21.1426 202.119 20.8809C202.174 20.6191 202.223 20.3652 202.266 20.1191C202.312 19.873 202.35 19.6445 202.377 19.4336H203.408Z" fill="#EEE"/><path d="M231.674 26.3379C231.674 25.8223 231.709 25.3184 231.779 24.8262C231.854 24.334 231.977 23.877 232.148 23.4551C232.32 23.0293 232.553 22.6562 232.846 22.3359C233.143 22.0156 233.512 21.7656 233.953 21.5859C234.398 21.4023 234.932 21.3105 235.553 21.3105C235.732 21.3105 235.922 21.3203 236.121 21.3398C236.324 21.3555 236.492 21.3828 236.625 21.4219V22.2598C236.48 22.209 236.316 22.1719 236.133 22.1484C235.949 22.125 235.764 22.1133 235.576 22.1133C234.854 22.1133 234.283 22.2715 233.865 22.5879C233.447 22.9004 233.145 23.3281 232.957 23.8711C232.773 24.4102 232.668 25.0195 232.641 25.6992H232.711C232.832 25.5039 232.986 25.3281 233.174 25.1719C233.361 25.0117 233.588 24.8848 233.854 24.791C234.123 24.6973 234.436 24.6504 234.791 24.6504C235.291 24.6504 235.727 24.752 236.098 24.9551C236.473 25.1582 236.762 25.4531 236.965 25.8398C237.172 26.2266 237.275 26.6953 237.275 27.2461C237.275 27.8359 237.164 28.3457 236.941 28.7754C236.723 29.2051 236.41 29.5371 236.004 29.7715C235.602 30.002 235.123 30.1172 234.568 30.1172C234.15 30.1172 233.764 30.0371 233.408 29.877C233.057 29.7168 232.75 29.4785 232.488 29.1621C232.23 28.8457 232.029 28.4531 231.885 27.9844C231.744 27.5117 231.674 26.9629 231.674 26.3379ZM234.557 29.2969C235.084 29.2969 235.508 29.127 235.828 28.7871C236.148 28.4473 236.309 27.9336 236.309 27.2461C236.309 26.6836 236.166 26.2402 235.881 25.916C235.596 25.5879 235.168 25.4219 234.598 25.418C234.207 25.4141 233.867 25.4941 233.578 25.6582C233.289 25.8184 233.064 26.0234 232.904 26.2734C232.744 26.5195 232.664 26.7695 232.664 27.0234C232.664 27.2812 232.701 27.543 232.775 27.8086C232.854 28.0742 232.969 28.3203 233.121 28.5469C233.277 28.7734 233.475 28.9551 233.713 29.0918C233.951 29.2285 234.232 29.2969 234.557 29.2969ZM240.787 21.4336L240.875 21.5625C240.805 21.8516 240.715 22.1602 240.605 22.4883C240.496 22.8125 240.377 23.1367 240.248 23.4609C240.119 23.7812 239.99 24.084 239.861 24.3691H239.129C239.211 24.0723 239.293 23.75 239.375 23.4023C239.457 23.0547 239.531 22.709 239.598 22.3652C239.664 22.0215 239.717 21.7109 239.756 21.4336H240.787ZM238.631 21.4336L238.713 21.5625C238.646 21.8516 238.557 22.1602 238.443 22.4883C238.334 22.8125 238.215 23.1367 238.086 23.4609C237.957 23.7812 237.828 24.084 237.699 24.3691H236.996C237.055 24.1465 237.113 23.9082 237.172 23.6543C237.234 23.4004 237.291 23.1426 237.342 22.8809C237.396 22.6191 237.445 22.3652 237.488 22.1191C237.535 21.873 237.572 21.6445 237.6 21.4336H238.631Z" fill="#EEE"/><path d="M32.4629 261V260.186L34.7539 257.859C35.1797 257.43 35.5371 257.047 35.8262 256.711C36.1191 256.375 36.3418 256.045 36.4941 255.721C36.6465 255.393 36.7227 255.033 36.7227 254.643C36.7227 254.158 36.5781 253.789 36.2891 253.535C36.0039 253.277 35.6289 253.148 35.1641 253.148C34.75 253.148 34.3828 253.219 34.0625 253.359C33.7461 253.5 33.4238 253.699 33.0957 253.957L32.5742 253.301C32.8008 253.109 33.0469 252.939 33.3125 252.791C33.5781 252.643 33.8652 252.525 34.1738 252.439C34.4824 252.354 34.8125 252.311 35.1641 252.311C35.6875 252.311 36.1406 252.402 36.5234 252.586C36.9062 252.77 37.2012 253.031 37.4082 253.371C37.6152 253.711 37.7188 254.115 37.7188 254.584C37.7188 255.037 37.6289 255.459 37.4492 255.85C37.2695 256.236 37.0176 256.621 36.6934 257.004C36.373 257.383 35.9941 257.785 35.5566 258.211L33.6934 260.068V260.109H38.0703V261H32.4629ZM41.5645 252.434L41.6523 252.562C41.582 252.852 41.4922 253.16 41.3828 253.488C41.2734 253.812 41.1543 254.137 41.0254 254.461C40.8965 254.781 40.7676 255.084 40.6387 255.369H39.9062C39.9883 255.072 40.0703 254.75 40.1523 254.402C40.2344 254.055 40.3086 253.709 40.375 253.365C40.4414 253.021 40.4941 252.711 40.5332 252.434H41.5645ZM39.4082 252.434L39.4902 252.562C39.4238 252.852 39.334 253.16 39.2207 253.488C39.1113 253.812 38.9922 254.137 38.8633 254.461C38.7344 254.781 38.6055 255.084 38.4766 255.369H37.7734C37.832 255.146 37.8906 254.908 37.9492 254.654C38.0117 254.4 38.0684 254.143 38.1191 253.881C38.1738 253.619 38.2227 253.365 38.2656 253.119C38.3125 252.873 38.3496 252.645 38.377 252.434H39.4082Z" fill="#EEE"/></svg>