<svg width="776" height="376" viewBox="0 0 776 376" fill="none" xmlns="http://www.w3.org/2000/svg"><path fill="currentColor" d="M8 0H776V8H8z"/><path fill="currentColor" d="M344 368H590V376H344z"/><path transform="rotate(-90 768 376)" fill="currentColor" d="M768 376H1136V384H768z"/><path transform="rotate(-90 0 137)" fill="currentColor" d="M0 137H137V145H0z"/><path transform="rotate(-90 0 376)" fill="currentColor" d="M0 376H143V384H0z"/><path d="M747.688 101.595H431.339V273.972H747.688V101.595Z" fill="#F9F9F9"/><path d="M261 298H8V368H261V298Z" fill="#F9F9F9"/><path d="M355.293 63H314.55V228.308H355.293V63Z" fill="#F9F9F9"/><path d="M727.465 28.9438H482.861V130.682H727.465V28.9438Z" fill="#F9F9F9"/><path d="M727.107 29H701V130.738H727.107V29Z" fill="#F6F6F6"/><path d="M727.604 29H483V51.6179H727.604V29Z" fill="#F6F6F6"/><path d="M479.598 28.9438H362.166V240.859H479.598V28.9438Z" fill="#F9F9F9"/><path d="M479.432 29H362V51.6179H479.432V29Z" fill="#F6F6F6"/><path d="M388.107 29H362V240.915H388.107V29Z" fill="#F6F6F6"/><path d="M542.541 154.713H659.973C666.302 154.713 671.395 159.125 671.395 164.608V210.958C671.395 216.398 666.302 220.853 659.973 220.853H542.541C536.212 220.853 531.119 216.441 531.119 210.958V164.566C531.119 159.125 536.262 154.713 542.541 154.713Z" fill="#F6F6F6"/><path d="M597.254 45L600.77 37.3242H596.1V36.4336H601.812V37.1836L598.32 45H597.254ZM604.369 39.7617C604.955 39.7617 605.463 39.8613 605.893 40.0605C606.322 40.2559 606.654 40.541 606.889 40.916C607.123 41.291 607.24 41.7461 607.24 42.2812C607.24 42.8672 607.113 43.373 606.859 43.7988C606.605 44.2207 606.24 44.5469 605.764 44.7773C605.291 45.0039 604.723 45.1172 604.059 45.1172C603.609 45.1172 603.193 45.0781 602.811 45C602.428 44.9219 602.105 44.8047 601.844 44.6484V43.7227C602.129 43.8945 602.475 44.0312 602.881 44.1328C603.287 44.2344 603.682 44.2852 604.064 44.2852C604.498 44.2852 604.877 44.2168 605.201 44.0801C605.529 43.9395 605.783 43.7285 605.963 43.4473C606.146 43.1621 606.238 42.8047 606.238 42.375C606.238 41.8047 606.062 41.3652 605.711 41.0566C605.363 40.7441 604.814 40.5879 604.064 40.5879C603.818 40.5879 603.551 40.6074 603.262 40.6465C602.973 40.6855 602.736 40.7285 602.553 40.7754L602.055 40.4531L602.383 36.4336H606.648V37.3242H603.215L603.004 39.9023C603.148 39.875 603.338 39.8457 603.572 39.8145C603.811 39.7793 604.076 39.7617 604.369 39.7617ZM610.846 36.4336L610.934 36.5625C610.863 36.8516 610.773 37.1602 610.664 37.4883C610.555 37.8125 610.436 38.1367 610.307 38.4609C610.178 38.7812 610.049 39.084 609.92 39.3691H609.188C609.27 39.0723 609.352 38.75 609.434 38.4023C609.516 38.0547 609.59 37.709 609.656 37.3652C609.723 37.0215 609.775 36.7109 609.814 36.4336H610.846ZM608.689 36.4336L608.771 36.5625C608.705 36.8516 608.615 37.1602 608.502 37.4883C608.393 37.8125 608.273 38.1367 608.145 38.4609C608.016 38.7812 607.887 39.084 607.758 39.3691H607.055C607.113 39.1465 607.172 38.9082 607.23 38.6543C607.293 38.4004 607.35 38.1426 607.4 37.8809C607.455 37.6191 607.504 37.3652 607.547 37.1191C607.594 36.873 607.631 36.6445 607.658 36.4336H608.689Z" fill="#EEE"/><path d="M417.859 38.4316C417.859 39.0059 417.695 39.4668 417.367 39.8145C417.043 40.1582 416.613 40.3828 416.078 40.4883V40.5352C416.758 40.6211 417.268 40.8398 417.607 41.1914C417.951 41.543 418.123 42.0039 418.123 42.5742C418.123 43.0703 418.006 43.5098 417.771 43.8926C417.541 44.2754 417.186 44.5762 416.705 44.7949C416.229 45.0098 415.617 45.1172 414.871 45.1172C414.418 45.1172 413.998 45.0801 413.611 45.0059C413.229 44.9355 412.861 44.8164 412.51 44.6484V43.7344C412.865 43.9102 413.252 44.0488 413.67 44.1504C414.088 44.248 414.492 44.2969 414.883 44.2969C415.402 44.2969 415.824 44.2266 416.148 44.0859C416.477 43.9453 416.717 43.7461 416.869 43.4883C417.021 43.2266 417.098 42.916 417.098 42.5566C417.098 42.1855 417 41.8867 416.805 41.6602C416.613 41.4297 416.336 41.2617 415.973 41.1562C415.609 41.0469 415.174 40.9922 414.666 40.9922H413.816V40.1602H414.678C415.143 40.1602 415.537 40.0918 415.861 39.9551C416.186 39.8184 416.432 39.627 416.6 39.3809C416.771 39.1309 416.857 38.8359 416.857 38.4961C416.857 38.0625 416.713 37.7285 416.424 37.4941C416.135 37.2559 415.742 37.1367 415.246 37.1367C414.785 37.1367 414.385 37.2051 414.045 37.3418C413.709 37.4746 413.379 37.6504 413.055 37.8691L412.562 37.2012C412.875 36.959 413.256 36.75 413.705 36.5742C414.154 36.3984 414.664 36.3105 415.234 36.3105C416.109 36.3105 416.766 36.5098 417.203 36.9082C417.641 37.3027 417.859 37.8105 417.859 38.4316ZM418.471 41.3379C418.471 40.8223 418.506 40.3184 418.576 39.8262C418.65 39.334 418.773 38.877 418.945 38.4551C419.117 38.0293 419.35 37.6562 419.643 37.3359C419.939 37.0156 420.309 36.7656 420.75 36.5859C421.195 36.4023 421.729 36.3105 422.35 36.3105C422.529 36.3105 422.719 36.3203 422.918 36.3398C423.121 36.3555 423.289 36.3828 423.422 36.4219V37.2598C423.277 37.209 423.113 37.1719 422.93 37.1484C422.746 37.125 422.561 37.1133 422.373 37.1133C421.65 37.1133 421.08 37.2715 420.662 37.5879C420.244 37.9004 419.941 38.3281 419.754 38.8711C419.57 39.4102 419.465 40.0195 419.438 40.6992H419.508C419.629 40.5039 419.783 40.3281 419.971 40.1719C420.158 40.0117 420.385 39.8848 420.65 39.791C420.92 39.6973 421.232 39.6504 421.588 39.6504C422.088 39.6504 422.523 39.752 422.895 39.9551C423.27 40.1582 423.559 40.4531 423.762 40.8398C423.969 41.2266 424.072 41.6953 424.072 42.2461C424.072 42.8359 423.961 43.3457 423.738 43.7754C423.52 44.2051 423.207 44.5371 422.801 44.7715C422.398 45.002 421.92 45.1172 421.365 45.1172C420.947 45.1172 420.561 45.0371 420.205 44.877C419.854 44.7168 419.547 44.4785 419.285 44.1621C419.027 43.8457 418.826 43.4531 418.682 42.9844C418.541 42.5117 418.471 41.9629 418.471 41.3379ZM421.354 44.2969C421.881 44.2969 422.305 44.127 422.625 43.7871C422.945 43.4473 423.105 42.9336 423.105 42.2461C423.105 41.6836 422.963 41.2402 422.678 40.916C422.393 40.5879 421.965 40.4219 421.395 40.418C421.004 40.4141 420.664 40.4941 420.375 40.6582C420.086 40.8184 419.861 41.0234 419.701 41.2734C419.541 41.5195 419.461 41.7695 419.461 42.0234C419.461 42.2812 419.498 42.543 419.572 42.8086C419.65 43.0742 419.766 43.3203 419.918 43.5469C420.074 43.7734 420.271 43.9551 420.51 44.0918C420.748 44.2285 421.029 44.2969 421.354 44.2969ZM427.584 36.4336L427.672 36.5625C427.602 36.8516 427.512 37.1602 427.402 37.4883C427.293 37.8125 427.174 38.1367 427.045 38.4609C426.916 38.7812 426.787 39.084 426.658 39.3691H425.926C426.008 39.0723 426.09 38.75 426.172 38.4023C426.254 38.0547 426.328 37.709 426.395 37.3652C426.461 37.0215 426.514 36.7109 426.553 36.4336H427.584ZM425.428 36.4336L425.51 36.5625C425.443 36.8516 425.354 37.1602 425.24 37.4883C425.131 37.8125 425.012 38.1367 424.883 38.4609C424.754 38.7812 424.625 39.084 424.496 39.3691H423.793C423.852 39.1465 423.91 38.9082 423.969 38.6543C424.031 38.4004 424.088 38.1426 424.139 37.8809C424.193 37.6191 424.242 37.3652 424.285 37.1191C424.332 36.873 424.369 36.6445 424.396 36.4336H425.428Z" fill="#EEE"/><path d="M367.254 140L370.77 132.324H366.1V131.434H371.812V132.184L368.32 140H367.254ZM374.369 134.762C374.955 134.762 375.463 134.861 375.893 135.061C376.322 135.256 376.654 135.541 376.889 135.916C377.123 136.291 377.24 136.746 377.24 137.281C377.24 137.867 377.113 138.373 376.859 138.799C376.605 139.221 376.24 139.547 375.764 139.777C375.291 140.004 374.723 140.117 374.059 140.117C373.609 140.117 373.193 140.078 372.811 140C372.428 139.922 372.105 139.805 371.844 139.648V138.723C372.129 138.895 372.475 139.031 372.881 139.133C373.287 139.234 373.682 139.285 374.064 139.285C374.498 139.285 374.877 139.217 375.201 139.08C375.529 138.939 375.783 138.729 375.963 138.447C376.146 138.162 376.238 137.805 376.238 137.375C376.238 136.805 376.062 136.365 375.711 136.057C375.363 135.744 374.814 135.588 374.064 135.588C373.818 135.588 373.551 135.607 373.262 135.646C372.973 135.686 372.736 135.729 372.553 135.775L372.055 135.453L372.383 131.434H376.648V132.324H373.215L373.004 134.902C373.148 134.875 373.338 134.846 373.572 134.814C373.811 134.779 374.076 134.762 374.369 134.762ZM380.846 131.434L380.934 131.562C380.863 131.852 380.773 132.16 380.664 132.488C380.555 132.812 380.436 133.137 380.307 133.461C380.178 133.781 380.049 134.084 379.92 134.369H379.188C379.27 134.072 379.352 133.75 379.434 133.402C379.516 133.055 379.59 132.709 379.656 132.365C379.723 132.021 379.775 131.711 379.814 131.434H380.846ZM378.689 131.434L378.771 131.562C378.705 131.852 378.615 132.16 378.502 132.488C378.393 132.812 378.273 133.137 378.145 133.461C378.016 133.781 377.887 134.084 377.758 134.369H377.055C377.113 134.146 377.172 133.908 377.23 133.654C377.293 133.4 377.35 133.143 377.4 132.881C377.455 132.619 377.504 132.365 377.547 132.119C377.594 131.873 377.631 131.645 377.658 131.434H378.689Z" fill="#EEE"/><path d="M329.674 76.3379C329.674 75.8223 329.709 75.3184 329.779 74.8262C329.854 74.334 329.977 73.877 330.148 73.4551C330.32 73.0293 330.553 72.6562 330.846 72.3359C331.143 72.0156 331.512 71.7656 331.953 71.5859C332.398 71.4023 332.932 71.3105 333.553 71.3105C333.732 71.3105 333.922 71.3203 334.121 71.3398C334.324 71.3555 334.492 71.3828 334.625 71.4219V72.2598C334.48 72.209 334.316 72.1719 334.133 72.1484C333.949 72.125 333.764 72.1133 333.576 72.1133C332.854 72.1133 332.283 72.2715 331.865 72.5879C331.447 72.9004 331.145 73.3281 330.957 73.8711C330.773 74.4102 330.668 75.0195 330.641 75.6992H330.711C330.832 75.5039 330.986 75.3281 331.174 75.1719C331.361 75.0117 331.588 74.8848 331.854 74.791C332.123 74.6973 332.436 74.6504 332.791 74.6504C333.291 74.6504 333.727 74.752 334.098 74.9551C334.473 75.1582 334.762 75.4531 334.965 75.8398C335.172 76.2266 335.275 76.6953 335.275 77.2461C335.275 77.8359 335.164 78.3457 334.941 78.7754C334.723 79.2051 334.41 79.5371 334.004 79.7715C333.602 80.002 333.123 80.1172 332.568 80.1172C332.15 80.1172 331.764 80.0371 331.408 79.877C331.057 79.7168 330.75 79.4785 330.488 79.1621C330.23 78.8457 330.029 78.4531 329.885 77.9844C329.744 77.5117 329.674 76.9629 329.674 76.3379ZM332.557 79.2969C333.084 79.2969 333.508 79.127 333.828 78.7871C334.148 78.4473 334.309 77.9336 334.309 77.2461C334.309 76.6836 334.166 76.2402 333.881 75.916C333.596 75.5879 333.168 75.4219 332.598 75.418C332.207 75.4141 331.867 75.4941 331.578 75.6582C331.289 75.8184 331.064 76.0234 330.904 76.2734C330.744 76.5195 330.664 76.7695 330.664 77.0234C330.664 77.2812 330.701 77.543 330.775 77.8086C330.854 78.0742 330.969 78.3203 331.121 78.5469C331.277 78.7734 331.475 78.9551 331.713 79.0918C331.951 79.2285 332.232 79.2969 332.557 79.2969ZM338.787 71.4336L338.875 71.5625C338.805 71.8516 338.715 72.1602 338.605 72.4883C338.496 72.8125 338.377 73.1367 338.248 73.4609C338.119 73.7812 337.99 74.084 337.861 74.3691H337.129C337.211 74.0723 337.293 73.75 337.375 73.4023C337.457 73.0547 337.531 72.709 337.598 72.3652C337.664 72.0215 337.717 71.7109 337.756 71.4336H338.787ZM336.631 71.4336L336.713 71.5625C336.646 71.8516 336.557 72.1602 336.443 72.4883C336.334 72.8125 336.215 73.1367 336.086 73.4609C335.957 73.7812 335.828 74.084 335.699 74.3691H334.996C335.055 74.1465 335.113 73.9082 335.172 73.6543C335.234 73.4004 335.291 73.1426 335.342 72.8809C335.396 72.6191 335.445 72.3652 335.488 72.1191C335.535 71.873 335.572 71.6445 335.6 71.4336H336.631Z" fill="#EEE"/><path d="M317.674 147.338C317.674 146.822 317.709 146.318 317.779 145.826C317.854 145.334 317.977 144.877 318.148 144.455C318.32 144.029 318.553 143.656 318.846 143.336C319.143 143.016 319.512 142.766 319.953 142.586C320.398 142.402 320.932 142.311 321.553 142.311C321.732 142.311 321.922 142.32 322.121 142.34C322.324 142.355 322.492 142.383 322.625 142.422V143.26C322.48 143.209 322.316 143.172 322.133 143.148C321.949 143.125 321.764 143.113 321.576 143.113C320.854 143.113 320.283 143.271 319.865 143.588C319.447 143.9 319.145 144.328 318.957 144.871C318.773 145.41 318.668 146.02 318.641 146.699H318.711C318.832 146.504 318.986 146.328 319.174 146.172C319.361 146.012 319.588 145.885 319.854 145.791C320.123 145.697 320.436 145.65 320.791 145.65C321.291 145.65 321.727 145.752 322.098 145.955C322.473 146.158 322.762 146.453 322.965 146.84C323.172 147.227 323.275 147.695 323.275 148.246C323.275 148.836 323.164 149.346 322.941 149.775C322.723 150.205 322.41 150.537 322.004 150.771C321.602 151.002 321.123 151.117 320.568 151.117C320.15 151.117 319.764 151.037 319.408 150.877C319.057 150.717 318.75 150.479 318.488 150.162C318.23 149.846 318.029 149.453 317.885 148.984C317.744 148.512 317.674 147.963 317.674 147.338ZM320.557 150.297C321.084 150.297 321.508 150.127 321.828 149.787C322.148 149.447 322.309 148.934 322.309 148.246C322.309 147.684 322.166 147.24 321.881 146.916C321.596 146.588 321.168 146.422 320.598 146.418C320.207 146.414 319.867 146.494 319.578 146.658C319.289 146.818 319.064 147.023 318.904 147.273C318.744 147.52 318.664 147.77 318.664 148.023C318.664 148.281 318.701 148.543 318.775 148.809C318.854 149.074 318.969 149.32 319.121 149.547C319.277 149.773 319.475 149.955 319.713 150.092C319.951 150.229 320.232 150.297 320.557 150.297ZM329.166 146.705C329.166 147.4 329.113 148.021 329.008 148.568C328.902 149.115 328.736 149.578 328.51 149.957C328.283 150.336 327.99 150.625 327.631 150.824C327.271 151.02 326.84 151.117 326.336 151.117C325.855 151.117 325.438 151.02 325.082 150.824C324.73 150.625 324.438 150.338 324.203 149.963C323.973 149.584 323.801 149.121 323.688 148.574C323.574 148.027 323.518 147.404 323.518 146.705C323.518 145.787 323.609 145 323.793 144.344C323.98 143.688 324.279 143.184 324.689 142.832C325.104 142.477 325.652 142.299 326.336 142.299C326.984 142.299 327.516 142.475 327.93 142.826C328.348 143.174 328.658 143.678 328.861 144.338C329.064 144.994 329.166 145.783 329.166 146.705ZM324.496 146.705C324.496 147.904 324.637 148.801 324.918 149.395C325.203 149.988 325.676 150.285 326.336 150.285C326.996 150.285 327.469 149.99 327.754 149.4C328.039 148.807 328.182 147.908 328.182 146.705C328.182 145.92 328.121 145.264 328 144.736C327.879 144.205 327.684 143.807 327.414 143.541C327.145 143.271 326.785 143.137 326.336 143.137C325.887 143.137 325.527 143.271 325.258 143.541C324.988 143.807 324.793 144.205 324.672 144.736C324.555 145.264 324.496 145.92 324.496 146.705ZM332.783 142.434L332.871 142.562C332.801 142.852 332.711 143.16 332.602 143.488C332.492 143.812 332.373 144.137 332.244 144.461C332.115 144.781 331.986 145.084 331.857 145.369H331.125C331.207 145.072 331.289 144.75 331.371 144.402C331.453 144.055 331.527 143.709 331.594 143.365C331.66 143.021 331.713 142.711 331.752 142.434H332.783ZM330.627 142.434L330.709 142.562C330.643 142.852 330.553 143.16 330.439 143.488C330.33 143.812 330.211 144.137 330.082 144.461C329.953 144.781 329.824 145.084 329.695 145.369H328.992C329.051 145.146 329.109 144.908 329.168 144.654C329.23 144.4 329.287 144.143 329.338 143.881C329.393 143.619 329.441 143.365 329.484 143.119C329.531 142.873 329.568 142.645 329.596 142.434H330.627Z" fill="#EEE"/><path d="M710.859 78.4316C710.859 79.0059 710.695 79.4668 710.367 79.8145C710.043 80.1582 709.613 80.3828 709.078 80.4883V80.5352C709.758 80.6211 710.268 80.8398 710.607 81.1914C710.951 81.543 711.123 82.0039 711.123 82.5742C711.123 83.0703 711.006 83.5098 710.771 83.8926C710.541 84.2754 710.186 84.5762 709.705 84.7949C709.229 85.0098 708.617 85.1172 707.871 85.1172C707.418 85.1172 706.998 85.0801 706.611 85.0059C706.229 84.9355 705.861 84.8164 705.51 84.6484V83.7344C705.865 83.9102 706.252 84.0488 706.67 84.1504C707.088 84.248 707.492 84.2969 707.883 84.2969C708.402 84.2969 708.824 84.2266 709.148 84.0859C709.477 83.9453 709.717 83.7461 709.869 83.4883C710.021 83.2266 710.098 82.916 710.098 82.5566C710.098 82.1855 710 81.8867 709.805 81.6602C709.613 81.4297 709.336 81.2617 708.973 81.1562C708.609 81.0469 708.174 80.9922 707.666 80.9922H706.816V80.1602H707.678C708.143 80.1602 708.537 80.0918 708.861 79.9551C709.186 79.8184 709.432 79.627 709.6 79.3809C709.771 79.1309 709.857 78.8359 709.857 78.4961C709.857 78.0625 709.713 77.7285 709.424 77.4941C709.135 77.2559 708.742 77.1367 708.246 77.1367C707.785 77.1367 707.385 77.2051 707.045 77.3418C706.709 77.4746 706.379 77.6504 706.055 77.8691L705.562 77.2012C705.875 76.959 706.256 76.75 706.705 76.5742C707.154 76.3984 707.664 76.3105 708.234 76.3105C709.109 76.3105 709.766 76.5098 710.203 76.9082C710.641 77.3027 710.859 77.8105 710.859 78.4316ZM711.471 81.3379C711.471 80.8223 711.506 80.3184 711.576 79.8262C711.65 79.334 711.773 78.877 711.945 78.4551C712.117 78.0293 712.35 77.6562 712.643 77.3359C712.939 77.0156 713.309 76.7656 713.75 76.5859C714.195 76.4023 714.729 76.3105 715.35 76.3105C715.529 76.3105 715.719 76.3203 715.918 76.3398C716.121 76.3555 716.289 76.3828 716.422 76.4219V77.2598C716.277 77.209 716.113 77.1719 715.93 77.1484C715.746 77.125 715.561 77.1133 715.373 77.1133C714.65 77.1133 714.08 77.2715 713.662 77.5879C713.244 77.9004 712.941 78.3281 712.754 78.8711C712.57 79.4102 712.465 80.0195 712.438 80.6992H712.508C712.629 80.5039 712.783 80.3281 712.971 80.1719C713.158 80.0117 713.385 79.8848 713.65 79.791C713.92 79.6973 714.232 79.6504 714.588 79.6504C715.088 79.6504 715.523 79.752 715.895 79.9551C716.27 80.1582 716.559 80.4531 716.762 80.8398C716.969 81.2266 717.072 81.6953 717.072 82.2461C717.072 82.8359 716.961 83.3457 716.738 83.7754C716.52 84.2051 716.207 84.5371 715.801 84.7715C715.398 85.002 714.92 85.1172 714.365 85.1172C713.947 85.1172 713.561 85.0371 713.205 84.877C712.854 84.7168 712.547 84.4785 712.285 84.1621C712.027 83.8457 711.826 83.4531 711.682 82.9844C711.541 82.5117 711.471 81.9629 711.471 81.3379ZM714.354 84.2969C714.881 84.2969 715.305 84.127 715.625 83.7871C715.945 83.4473 716.105 82.9336 716.105 82.2461C716.105 81.6836 715.963 81.2402 715.678 80.916C715.393 80.5879 714.965 80.4219 714.395 80.418C714.004 80.4141 713.664 80.4941 713.375 80.6582C713.086 80.8184 712.861 81.0234 712.701 81.2734C712.541 81.5195 712.461 81.7695 712.461 82.0234C712.461 82.2812 712.498 82.543 712.572 82.8086C712.65 83.0742 712.766 83.3203 712.918 83.5469C713.074 83.7734 713.271 83.9551 713.51 84.0918C713.748 84.2285 714.029 84.2969 714.354 84.2969ZM720.584 76.4336L720.672 76.5625C720.602 76.8516 720.512 77.1602 720.402 77.4883C720.293 77.8125 720.174 78.1367 720.045 78.4609C719.916 78.7812 719.787 79.084 719.658 79.3691H718.926C719.008 79.0723 719.09 78.75 719.172 78.4023C719.254 78.0547 719.328 77.709 719.395 77.3652C719.461 77.0215 719.514 76.7109 719.553 76.4336H720.584ZM718.428 76.4336L718.51 76.5625C718.443 76.8516 718.354 77.1602 718.24 77.4883C718.131 77.8125 718.012 78.1367 717.883 78.4609C717.754 78.7812 717.625 79.084 717.496 79.3691H716.793C716.852 79.1465 716.91 78.9082 716.969 78.6543C717.031 78.4004 717.088 78.1426 717.139 77.8809C717.193 77.6191 717.242 77.3652 717.285 77.1191C717.332 76.873 717.369 76.6445 717.396 76.4336H718.428Z" fill="#EEE"/><path d="M597.859 165.432C597.859 166.006 597.695 166.467 597.367 166.814C597.043 167.158 596.613 167.383 596.078 167.488V167.535C596.758 167.621 597.268 167.84 597.607 168.191C597.951 168.543 598.123 169.004 598.123 169.574C598.123 170.07 598.006 170.51 597.771 170.893C597.541 171.275 597.186 171.576 596.705 171.795C596.229 172.01 595.617 172.117 594.871 172.117C594.418 172.117 593.998 172.08 593.611 172.006C593.229 171.936 592.861 171.816 592.51 171.648V170.734C592.865 170.91 593.252 171.049 593.67 171.15C594.088 171.248 594.492 171.297 594.883 171.297C595.402 171.297 595.824 171.227 596.148 171.086C596.477 170.945 596.717 170.746 596.869 170.488C597.021 170.227 597.098 169.916 597.098 169.557C597.098 169.186 597 168.887 596.805 168.66C596.613 168.43 596.336 168.262 595.973 168.156C595.609 168.047 595.174 167.992 594.666 167.992H593.816V167.16H594.678C595.143 167.16 595.537 167.092 595.861 166.955C596.186 166.818 596.432 166.627 596.6 166.381C596.771 166.131 596.857 165.836 596.857 165.496C596.857 165.062 596.713 164.729 596.424 164.494C596.135 164.256 595.742 164.137 595.246 164.137C594.785 164.137 594.385 164.205 594.045 164.342C593.709 164.475 593.379 164.65 593.055 164.869L592.562 164.201C592.875 163.959 593.256 163.75 593.705 163.574C594.154 163.398 594.664 163.311 595.234 163.311C596.109 163.311 596.766 163.51 597.203 163.908C597.641 164.303 597.859 164.811 597.859 165.432ZM598.471 168.338C598.471 167.822 598.506 167.318 598.576 166.826C598.65 166.334 598.773 165.877 598.945 165.455C599.117 165.029 599.35 164.656 599.643 164.336C599.939 164.016 600.309 163.766 600.75 163.586C601.195 163.402 601.729 163.311 602.35 163.311C602.529 163.311 602.719 163.32 602.918 163.34C603.121 163.355 603.289 163.383 603.422 163.422V164.26C603.277 164.209 603.113 164.172 602.93 164.148C602.746 164.125 602.561 164.113 602.373 164.113C601.65 164.113 601.08 164.271 600.662 164.588C600.244 164.9 599.941 165.328 599.754 165.871C599.57 166.41 599.465 167.02 599.438 167.699H599.508C599.629 167.504 599.783 167.328 599.971 167.172C600.158 167.012 600.385 166.885 600.65 166.791C600.92 166.697 601.232 166.65 601.588 166.65C602.088 166.65 602.523 166.752 602.895 166.955C603.27 167.158 603.559 167.453 603.762 167.84C603.969 168.227 604.072 168.695 604.072 169.246C604.072 169.836 603.961 170.346 603.738 170.775C603.52 171.205 603.207 171.537 602.801 171.771C602.398 172.002 601.92 172.117 601.365 172.117C600.947 172.117 600.561 172.037 600.205 171.877C599.854 171.717 599.547 171.479 599.285 171.162C599.027 170.846 598.826 170.453 598.682 169.984C598.541 169.512 598.471 168.963 598.471 168.338ZM601.354 171.297C601.881 171.297 602.305 171.127 602.625 170.787C602.945 170.447 603.105 169.934 603.105 169.246C603.105 168.684 602.963 168.24 602.678 167.916C602.393 167.588 601.965 167.422 601.395 167.418C601.004 167.414 600.664 167.494 600.375 167.658C600.086 167.818 599.861 168.023 599.701 168.273C599.541 168.52 599.461 168.77 599.461 169.023C599.461 169.281 599.498 169.543 599.572 169.809C599.65 170.074 599.766 170.32 599.918 170.547C600.074 170.773 600.271 170.955 600.51 171.092C600.748 171.229 601.029 171.297 601.354 171.297ZM607.584 163.434L607.672 163.562C607.602 163.852 607.512 164.16 607.402 164.488C607.293 164.812 607.174 165.137 607.045 165.461C606.916 165.781 606.787 166.084 606.658 166.369H605.926C606.008 166.072 606.09 165.75 606.172 165.402C606.254 165.055 606.328 164.709 606.395 164.365C606.461 164.021 606.514 163.711 606.553 163.434H607.584ZM605.428 163.434L605.51 163.562C605.443 163.852 605.354 164.16 605.24 164.488C605.131 164.812 605.012 165.137 604.883 165.461C604.754 165.781 604.625 166.084 604.496 166.369H603.793C603.852 166.146 603.91 165.908 603.969 165.654C604.031 165.4 604.088 165.143 604.139 164.881C604.193 164.619 604.242 164.365 604.285 164.119C604.332 163.873 604.369 163.645 604.396 163.434H605.428Z" fill="#EEE"/><path d="M653.473 193V186.93C653.473 186.699 653.475 186.502 653.479 186.338C653.482 186.17 653.486 186.018 653.49 185.881C653.498 185.74 653.508 185.598 653.52 185.453C653.398 185.578 653.283 185.686 653.174 185.775C653.068 185.861 652.938 185.969 652.781 186.098L651.809 186.883L651.299 186.221L653.613 184.434H654.428V193H653.473ZM655.654 193V192.186L657.945 189.859C658.371 189.43 658.729 189.047 659.018 188.711C659.311 188.375 659.533 188.045 659.686 187.721C659.838 187.393 659.914 187.033 659.914 186.643C659.914 186.158 659.77 185.789 659.48 185.535C659.195 185.277 658.82 185.148 658.355 185.148C657.941 185.148 657.574 185.219 657.254 185.359C656.938 185.5 656.615 185.699 656.287 185.957L655.766 185.301C655.992 185.109 656.238 184.939 656.504 184.791C656.77 184.643 657.057 184.525 657.365 184.439C657.674 184.354 658.004 184.311 658.355 184.311C658.879 184.311 659.332 184.402 659.715 184.586C660.098 184.77 660.393 185.031 660.6 185.371C660.807 185.711 660.91 186.115 660.91 186.584C660.91 187.037 660.82 187.459 660.641 187.85C660.461 188.236 660.209 188.621 659.885 189.004C659.564 189.383 659.186 189.785 658.748 190.211L656.885 192.068V192.109H661.262V193H655.654ZM664.756 184.434L664.844 184.562C664.773 184.852 664.684 185.16 664.574 185.488C664.465 185.812 664.346 186.137 664.217 186.461C664.088 186.781 663.959 187.084 663.83 187.369H663.098C663.18 187.072 663.262 186.75 663.344 186.402C663.426 186.055 663.5 185.709 663.566 185.365C663.633 185.021 663.686 184.711 663.725 184.434H664.756ZM662.6 184.434L662.682 184.562C662.615 184.852 662.525 185.16 662.412 185.488C662.303 185.812 662.184 186.137 662.055 186.461C661.926 186.781 661.797 187.084 661.668 187.369H660.965C661.023 187.146 661.082 186.908 661.141 186.654C661.203 186.4 661.26 186.143 661.311 185.881C661.365 185.619 661.414 185.365 661.457 185.119C661.504 184.873 661.541 184.645 661.568 184.434H662.6Z" fill="#EEE"/><path d="M129.463 315V314.186L131.754 311.859C132.18 311.43 132.537 311.047 132.826 310.711C133.119 310.375 133.342 310.045 133.494 309.721C133.646 309.393 133.723 309.033 133.723 308.643C133.723 308.158 133.578 307.789 133.289 307.535C133.004 307.277 132.629 307.148 132.164 307.148C131.75 307.148 131.383 307.219 131.062 307.359C130.746 307.5 130.424 307.699 130.096 307.957L129.574 307.301C129.801 307.109 130.047 306.939 130.312 306.791C130.578 306.643 130.865 306.525 131.174 306.439C131.482 306.354 131.812 306.311 132.164 306.311C132.688 306.311 133.141 306.402 133.523 306.586C133.906 306.77 134.201 307.031 134.408 307.371C134.615 307.711 134.719 308.115 134.719 308.584C134.719 309.037 134.629 309.459 134.449 309.85C134.27 310.236 134.018 310.621 133.693 311.004C133.373 311.383 132.994 311.785 132.557 312.211L130.693 314.068V314.109H135.07V315H129.463ZM138.564 306.434L138.652 306.562C138.582 306.852 138.492 307.16 138.383 307.488C138.273 307.812 138.154 308.137 138.025 308.461C137.896 308.781 137.768 309.084 137.639 309.369H136.906C136.988 309.072 137.07 308.75 137.152 308.402C137.234 308.055 137.309 307.709 137.375 307.365C137.441 307.021 137.494 306.711 137.533 306.434H138.564ZM136.408 306.434L136.49 306.562C136.424 306.852 136.334 307.16 136.221 307.488C136.111 307.812 135.992 308.137 135.863 308.461C135.734 308.781 135.605 309.084 135.477 309.369H134.773C134.832 309.146 134.891 308.908 134.949 308.654C135.012 308.4 135.068 308.143 135.119 307.881C135.174 307.619 135.223 307.365 135.266 307.119C135.312 306.873 135.35 306.645 135.377 306.434H136.408Z" fill="#EEE"/><path d="M246.463 338V337.186L248.754 334.859C249.18 334.43 249.537 334.047 249.826 333.711C250.119 333.375 250.342 333.045 250.494 332.721C250.646 332.393 250.723 332.033 250.723 331.643C250.723 331.158 250.578 330.789 250.289 330.535C250.004 330.277 249.629 330.148 249.164 330.148C248.75 330.148 248.383 330.219 248.062 330.359C247.746 330.5 247.424 330.699 247.096 330.957L246.574 330.301C246.801 330.109 247.047 329.939 247.312 329.791C247.578 329.643 247.865 329.525 248.174 329.439C248.482 329.354 248.812 329.311 249.164 329.311C249.688 329.311 250.141 329.402 250.523 329.586C250.906 329.77 251.201 330.031 251.408 330.371C251.615 330.711 251.719 331.115 251.719 331.584C251.719 332.037 251.629 332.459 251.449 332.85C251.27 333.236 251.018 333.621 250.693 334.004C250.373 334.383 249.994 334.785 249.557 335.211L247.693 337.068V337.109H252.07V338H246.463ZM255.564 329.434L255.652 329.562C255.582 329.852 255.492 330.16 255.383 330.488C255.273 330.812 255.154 331.137 255.025 331.461C254.896 331.781 254.768 332.084 254.639 332.369H253.906C253.988 332.072 254.07 331.75 254.152 331.402C254.234 331.055 254.309 330.709 254.375 330.365C254.441 330.021 254.494 329.711 254.533 329.434H255.564ZM253.408 329.434L253.49 329.562C253.424 329.852 253.334 330.16 253.221 330.488C253.111 330.812 252.992 331.137 252.863 331.461C252.734 331.781 252.605 332.084 252.477 332.369H251.773C251.832 332.146 251.891 331.908 251.949 331.654C252.012 331.4 252.068 331.143 252.119 330.881C252.174 330.619 252.223 330.365 252.266 330.119C252.312 329.873 252.35 329.645 252.377 329.434H253.408Z" fill="#EEE"/></svg>