<svg width="22" height="18" viewBox="0 0 22 18" fill="none" xmlns="http://www.w3.org/2000/svg"><path fill-rule="evenodd" clip-rule="evenodd" d="M19.1231 1C19.2516 0.999838 19.3557 1.10398 19.3557 1.23246V8.40433C19.3854 8.42234 19.4148 8.44067 19.4438 8.45949C20.3952 9.07219 20.9998 10.0791 20.9998 11.4885V17.493H21C21.0011 17.5554 20.9771 17.6158 20.9335 17.6604C20.8897 17.705 20.8298 17.73 20.7673 17.73C20.7049 17.73 20.645 17.705 20.6014 17.6604C20.5576 17.6158 20.5336 17.5554 20.5349 17.493V15.9373H1.46525V17.493C1.46574 17.5551 1.44141 17.6146 1.39777 17.6586C1.35397 17.7027 1.2946 17.7274 1.23263 17.7274C1.17066 17.7274 1.11113 17.7027 1.06749 17.6586C1.02385 17.6146 0.999521 17.5551 1.00001 17.493V11.4885C1.00001 10.0794 1.60216 9.07252 2.55145 8.45965C2.58195 8.43986 2.61293 8.42056 2.64424 8.40174V1.23278C2.64424 1.1043 2.74838 1.00032 2.8767 1.00032L19.1231 1ZM18.8906 1.46507H3.10918V8.1573C3.75286 7.86644 4.50132 7.7039 5.30692 7.63965V4.85811L5.30676 4.85795C5.30676 4.7491 5.38235 4.65469 5.4886 4.63101C5.90583 4.53773 6.29711 4.63117 6.64993 4.73207C7.00276 4.83265 7.32509 4.93938 7.60669 4.93938C7.92643 4.93938 8.25947 4.81999 8.62703 4.71179C8.99446 4.60343 9.40697 4.50918 9.85518 4.63409V4.63393C9.95576 4.66199 10.0254 4.75348 10.0254 4.85795V7.60672H11.9741V4.85795H11.9743C11.9743 4.74894 12.0498 4.65469 12.1561 4.63101C12.5743 4.53773 12.9661 4.63117 13.319 4.73207C13.672 4.83281 13.9939 4.93938 14.2742 4.93938C14.5952 4.93938 14.9288 4.81999 15.2961 4.71179C15.6636 4.60343 16.0755 4.50902 16.5228 4.63409V4.63393C16.6233 4.66199 16.6929 4.75364 16.6929 4.85795V7.64015C17.498 7.70504 18.2464 7.86839 18.8904 8.15992L18.8906 1.46507ZM16.1018 5.03971C15.885 5.03614 15.6662 5.08773 15.4279 5.15797C15.0814 5.26017 14.7044 5.40471 14.2744 5.40471C13.8849 5.40471 13.5277 5.27542 13.1917 5.17955C12.9249 5.10347 12.6764 5.04815 12.4395 5.0608V7.60696H15.8348C15.9668 7.60696 16.0979 7.60923 16.2278 7.61377V5.04847C16.1858 5.04344 16.1438 5.04052 16.1018 5.03971L16.1018 5.03971ZM9.43363 5.03971C9.21626 5.03614 8.99692 5.08773 8.7588 5.15797C8.4123 5.26017 8.03613 5.40471 7.60707 5.40471C7.21661 5.40471 6.85873 5.27542 6.52265 5.17955C6.25596 5.10347 6.00808 5.04815 5.77224 5.0608V7.61348C5.8999 7.6091 6.02854 7.60699 6.15832 7.60699H9.56054V5.04866C9.5182 5.04347 9.47602 5.04055 9.43368 5.0399L9.43363 5.03971ZM15.8347 8.07208H6.15791C4.82818 8.07208 3.63832 8.31135 2.80341 8.85023C2.02023 9.35588 1.52854 10.1066 1.47061 11.2556H20.5286C20.4705 10.1068 19.9769 9.35604 19.1916 8.85023C18.3546 8.3112 17.1628 8.07192 15.8343 8.07192L15.8347 8.07208ZM20.5349 11.7208H1.46525V15.472H20.5349V11.7208Z" fill="#A08452" stroke="#A08452" stroke-width=".5"/></svg>