<svg width="175" height="60" viewBox="0 0 175 60" fill="none" xmlns="http://www.w3.org/2000/svg"><path d="M1.36364 0H0V60H1.36364V0Z" fill="currentColor"/><path d="M174.818 58.6364H0V60H174.818V58.6364Z" fill="currentColor"/><path d="M174.818 0H173.455V60H174.818V0Z" fill="currentColor"/><path d="M174.818 0H0V1.36364H174.818V0Z" fill="currentColor"/><path d="M18.0955 18.3L15 17.7955V15.3545H23.9045L35.6045 33.0545L37.8 37.5409V18.3136L34.4182 17.8091V15.3682H44.1545V17.8091L41.1273 18.3136V44.5773H36.3818L24.1773 25.9773L21.4364 20.7818V41.8227L25.4045 42.2182V44.5773H15V42.2182L18.0955 41.8227V18.3Z" fill="currentColor"/><path d="M59.55 45C55.2818 45 52.0909 43.6636 49.9773 40.9909C47.8636 38.3182 46.8 34.6773 46.8 30.0545C46.8 27.0409 47.3454 24.3955 48.45 22.1182C49.5818 19.8409 51.15 18.0818 53.1545 16.8545C55.1727 15.6273 57.4909 15 60.0954 15C64.4182 15 67.65 16.2818 69.7909 18.8591C71.9591 21.3955 73.05 24.9682 73.05 29.55C73.05 32.5909 72.4773 35.2909 71.3182 37.65C70.1864 39.9818 68.6045 41.7955 66.5727 43.0773C64.5409 44.3591 62.1954 45 59.55 45ZM59.9454 17.4C57.8045 17.4 56.1273 18.4636 54.9273 20.5909C53.7273 22.7182 53.1273 25.8545 53.1273 30.0273C53.1273 34.1455 53.7 37.2818 54.8591 39.4227C56.0318 41.55 57.7091 42.6 59.8773 42.6C61.9909 42.6 63.6545 41.4818 64.8682 39.2591C66.0682 37.0091 66.6682 33.7636 66.6682 29.55C66.6682 25.4591 66.0955 22.4182 64.9364 20.4273C63.7773 18.4091 62.1136 17.4 59.9454 17.4Z" fill="currentColor"/><path d="M79.4864 18.3L76.4318 17.7955V15.3545H82.2818C83.1682 15.3545 84.3273 15.3 85.7318 15.1909C86.0727 15.1636 86.4818 15.1364 86.9454 15.1091C87.4227 15.0818 87.9682 15.0682 88.5954 15.0682C92.55 15.0682 95.3045 15.6273 96.8727 16.7591C98.4682 17.8636 99.2727 19.5136 99.2727 21.7091C99.2727 23.6455 98.6863 25.2682 97.5 26.5909C96.3545 27.8727 94.8273 28.6636 92.9454 28.95C95.5363 28.9227 97.5682 29.5091 99.0273 30.7227C100.514 31.9227 101.264 33.6 101.264 35.7545C101.264 38.4818 100.309 40.6636 98.4 42.3273C96.4909 43.9773 93.3 44.8091 88.8273 44.8091C87.6545 44.8091 86.5636 44.7682 85.5682 44.6864C85.3091 44.6864 84.8591 44.6591 84.2318 44.6045C83.6045 44.5773 82.9636 44.5636 82.3091 44.5636H76.3773V42.2045L79.4727 41.8091V18.3H79.4864ZM85.1727 28.0909C85.4591 28.1182 86.0454 28.1318 86.9454 28.1318H88.7863C90.3818 28.1318 91.5682 27.6273 92.3591 26.6318C93.15 25.6364 93.5318 24.2318 93.5318 22.4182C93.5318 20.6864 93.1227 19.4318 92.3182 18.6409C91.5136 17.85 90.1636 17.4545 88.2818 17.4545C87.7773 17.4545 86.7545 17.5091 85.1864 17.6182V28.0909H85.1727ZM85.1727 41.9727C85.7727 42.2046 86.9318 42.3273 88.6227 42.3273C90.8454 42.3273 92.4545 41.8091 93.45 40.7591C94.4454 39.7091 94.9363 38.1955 94.9363 36.2045C94.9363 34.2955 94.4727 32.9318 93.5591 32.1136C92.6727 31.2682 91.2409 30.8591 89.2773 30.8591C87.0818 30.8591 85.7045 30.8864 85.1591 30.9409V41.9727H85.1727Z" fill="currentColor"/><path d="M107.836 18.3L104.7 17.7955V15.3545H125.618L126.123 21.9545H123.368L122.073 18.0682L113.591 17.7136V28.2955L119.045 28.1727L119.673 24.9545H122.182V34.4727H119.673L119.045 31.0909L113.591 30.9682V42.0546L123.095 41.5773L125.373 36.5455L128.318 37.3773L127.295 44.5773H104.727V42.2182L107.823 41.8227V18.3H107.836Z" fill="currentColor"/><path d="M154.091 34.5L153.859 36.45C152.536 37.5818 151.705 39.2455 151.705 41.1136C151.705 42.3818 152.1 43.5682 152.768 44.5636H131.182V42.2045L134.277 41.8091V18.3L131.25 17.7818V15.3409H143.809V17.7818L140.045 18.3V41.7682L148.445 41.4136L150.914 34.0636L154.091 34.5Z" fill="currentColor"/><path d="M156.409 44.5909C158.292 44.5909 159.818 43.0646 159.818 41.1818C159.818 39.299 158.292 37.7727 156.409 37.7727C154.526 37.7727 153 39.299 153 41.1818C153 43.0646 154.526 44.5909 156.409 44.5909Z" fill="currentColor"/></svg>