<svg width="64" height="64" viewBox="0 0 64 64" fill="none" xmlns="http://www.w3.org/2000/svg"><path d="M2.13285 37.8668V27.2002H34.4962C34.4962 27.0935 34.5176 26.9973 34.5281 26.8906C34.56 26.6454 34.6029 26.3892 34.6562 26.1335C34.6881 25.9416 34.731 25.7601 34.7843 25.5682C34.8267 25.4082 34.8696 25.2482 34.9334 25.0668C34.9972 24.8106 35.0934 24.5335 35.2105 24.2668C35.52 23.4349 35.9467 22.6239 36.48 21.8667C36.6719 21.5786 36.8853 21.2905 37.12 21.0239C37.3015 20.8001 37.5038 20.5763 37.7281 20.3629C37.9415 20.1391 38.1548 19.9258 38.3896 19.7334H2.13377V16.5334C2.13377 15.9467 2.61377 15.4667 3.20044 15.4667H43.5839C43.8611 15.1253 44.1811 14.8162 44.5439 14.56C44.5654 14.5386 44.5973 14.5281 44.6187 14.5067C44.8854 14.2934 45.2054 14.0905 45.5678 13.9305C45.0454 13.5572 44.4163 13.3334 43.7335 13.3334H3.20001C1.43994 13.3334 0 14.7733 0 16.5334V37.8668C0 39.6268 1.43994 41.0668 3.20001 41.0668H30.3788C30.4535 40.7682 30.5492 40.4801 30.6773 40.203C30.7097 40.1387 30.7307 40.0639 30.7735 40.0001C30.9335 39.6373 31.1468 39.2749 31.424 38.9334H3.20052C2.61385 38.9334 2.13385 38.4534 2.13385 37.8668L2.13285 37.8668Z" fill="#BFAA83"/><path d="M34.4091 36.8014V30.4014H33.0654C32.4787 30.4014 31.9987 30.8814 31.9987 31.468V35.7347C31.9987 36.3214 32.4787 36.8014 33.0654 36.8014H34.4091Z" fill="#BFAA83"/><path d="M45.4171 48.5873H43.9557C44.9157 49.8568 46.4415 50.6672 48.1586 50.6672C49.8758 50.6672 51.4016 49.8568 52.3719 48.5873H45.4171Z" fill="#BFAA83"/><path d="M60.1174 38.6886H59.7764V35.4457C59.7017 35.4671 59.6164 35.4776 59.5312 35.4776H49.0564C48.4697 35.4776 47.9897 34.9976 47.9897 34.4109C47.9897 33.8138 48.4697 33.3442 49.0564 33.3442H59.5312C59.6164 33.3442 59.7017 33.3547 59.7764 33.3761V28.4909C59.7764 26.2614 58.9979 24.0961 57.5793 22.4109C56.7046 21.3761 55.6593 20.5443 54.4645 19.9575C54.3684 19.9147 54.2726 19.8614 54.1764 19.8294C53.5045 19.5199 52.7793 19.2856 52.0326 19.1471C51.6807 19.0832 51.3179 19.0404 50.9555 19.0085C50.7317 18.998 50.4969 18.9871 50.2726 18.9871H46.0488C45.825 18.9871 45.5903 18.9975 45.3665 19.0085C45.3236 19.019 45.2812 19.019 45.2384 19.019C44.9184 19.0509 44.5984 19.0937 44.2893 19.1471C43.6269 19.2752 42.9764 19.4671 42.3574 19.7337C42.2826 19.7656 42.2188 19.7975 42.144 19.8299C41.9674 19.9056 41.8016 20.0004 41.6321 20.0885C41.5397 20.1371 41.4431 20.178 41.3526 20.2299C41.0483 20.4033 40.7531 20.5918 40.4697 20.8004C40.0216 21.1204 39.6164 21.4723 39.2431 21.8671C39.0617 22.0376 38.9017 22.219 38.7417 22.4109C38.0698 23.2004 37.5469 24.0966 37.1841 25.0671C37.0455 25.4085 36.9279 25.7709 36.8427 26.1337C36.7465 26.4856 36.6827 26.8376 36.6398 27.2004C36.576 27.6271 36.5436 28.0538 36.5436 28.4909L36.5441 30.4004V38.688H36.2027C36.0212 38.688 35.8508 38.6985 35.6798 38.7309C35.3922 38.7633 35.115 38.8271 34.8588 38.9337C34.2507 39.1471 33.7174 39.5204 33.3017 40.0004C33.0246 40.3099 32.7898 40.6723 32.6298 41.0671C32.427 41.5256 32.3203 42.0376 32.3203 42.5709C32.3203 43.6057 32.7256 44.5761 33.4617 45.3123C34.2084 46.0485 35.1789 46.4537 36.2031 46.4537H60.1185C61.1423 46.4537 62.1132 46.0485 62.8704 45.3123C63.5951 44.5766 64.0004 43.6056 64.0004 42.5709C64.0004 40.4271 62.2618 38.6885 60.1175 38.6885L60.1174 38.6886Z" fill="#BFAA83"/><path d="M45.1836 16.8759H45.2688C45.4612 16.8649 45.6636 16.8544 45.8664 16.8544H50.2717C50.5279 16.8544 50.7946 16.8649 51.0503 16.8759C51.0932 16.8759 51.1251 16.8863 51.157 16.8863C51.0717 16.7902 50.9865 16.6944 50.9008 16.5982C50.1651 15.873 49.1836 15.4678 48.1599 15.4678C47.6799 15.4678 47.2318 15.553 46.8161 15.713C46.4642 15.8411 46.1332 16.0225 45.8456 16.2463C45.5894 16.4278 45.3652 16.6411 45.1837 16.8759L45.1836 16.8759Z" fill="#BFAA83"/></svg>