<svg width="25" height="26" viewBox="0 0 25 26" fill="none" xmlns="http://www.w3.org/2000/svg"><path fill-rule="evenodd" clip-rule="evenodd" d="M17.8001 17.0998C17.8001 19.7998 15.7001 21.7998 13.1001 21.7998C10.4001 21.7998 8.30007 19.6998 8.30007 17.0998C8.30007 14.4998 10.5001 12.2998 13.1001 12.2998C15.7001 12.2998 17.8001 14.3998 17.8001 17.0998ZM13.1001 20.0998C14.8001 20.0998 16.1001 18.7998 16.1001 17.0998C16.1001 15.3998 14.8001 13.9998 13.1001 13.9998C11.4001 13.9998 10.0001 15.3998 10.0001 17.0998C10.0001 18.6998 11.4001 20.0998 13.1001 20.0998ZM17.6001 12.8998C17.6001 12.8998 17.2001 9.29984 16.3001 9.19984C15.0001 8.89984 11.0001 8.89984 9.80007 9.09984C8.90007 9.29984 8.50007 12.7998 8.50007 12.7998L2.70007 18.0998V23.0998H23.4001V18.0998L17.6001 12.8998Z" fill="#B29768"/><path fill-rule="evenodd" clip-rule="evenodd" d="M25 6.3V9.6L19 7.9V6.5C19 2 6.99998 2 6.99998 6.5V7.9L1.09998 9.6C0.899976 8.5 0.999976 7.4 0.999976 6.3C0.999976 -2.1 25 -2.1 25 6.3Z" fill="#B29768"/></svg>