<svg width="25" height="26" viewBox="0 0 25 26" fill="none" xmlns="http://www.w3.org/2000/svg"><path fill-rule="evenodd" clip-rule="evenodd" d="M17.8001 17.1C17.8001 19.8 15.7001 21.8 13.1001 21.8C10.4001 21.8 8.30007 19.7 8.30007 17.1C8.30007 14.5 10.5001 12.3 13.1001 12.3C15.7001 12.3 17.8001 14.4 17.8001 17.1ZM13.1001 20.1C14.8001 20.1 16.1001 18.8 16.1001 17.1C16.1001 15.4 14.8001 14 13.1001 14C11.4001 14 10.0001 15.4 10.0001 17.1C10.0001 18.7 11.4001 20.1 13.1001 20.1ZM17.6001 12.9C17.6001 12.9 17.2001 9.29996 16.3001 9.19996C15.0001 8.89996 11.0001 8.89996 9.80007 9.09996C8.90007 9.29996 8.50007 12.8 8.50007 12.8L2.70007 18.1V23.1H23.4001V18.1L17.6001 12.9Z" fill="#BFAA83"/><path fill-rule="evenodd" clip-rule="evenodd" d="M25 10.3V13.6L19 11.9V10.5C19 6 6.99998 6 6.99998 10.5V11.9L1.09998 13.6C0.899976 12.5 0.999976 11.4 0.999976 10.3C0.999976 1.9 25 1.9 25 10.3Z" fill="#BFAA83"/></svg>