<svg width="24" height="24" viewBox="0 0 24 24" fill="none" xmlns="http://www.w3.org/2000/svg"><path d="M1.64987 10.8124C8.09231 8.00558 12.3883 6.15512 14.5378 5.26107C20.675 2.70837 21.9503 2.26494 22.7815 2.25014C22.9643 2.24708 23.3731 2.29238 23.6379 2.50723C23.8614 2.68865 23.9229 2.93371 23.9524 3.10571C23.9818 3.27771 24.0185 3.66954 23.9893 3.9757C23.6567 7.47014 22.2177 15.9502 21.4856 19.8641C21.1758 21.5202 20.5658 22.0754 19.9753 22.1298C18.6919 22.2479 17.7174 21.2817 16.4744 20.4669C14.5294 19.1919 13.4305 18.3982 11.5425 17.154C9.36064 15.7162 10.7751 14.9259 12.0185 13.6344C12.344 13.2964 17.9985 8.15319 18.1079 7.68662C18.1216 7.62827 18.1343 7.41076 18.0051 7.29591C17.8759 7.18105 17.6851 7.22033 17.5475 7.25156C17.3524 7.29584 14.2452 9.3496 8.22584 13.4128C7.34386 14.0185 6.54499 14.3136 5.82924 14.2981C5.04017 14.2811 3.52233 13.852 2.39397 13.4852C1.00999 13.0353 -0.0899675 12.7974 0.00581422 12.0334C0.0557033 11.6354 0.603724 11.2285 1.64987 10.8124Z" fill="currentColor"/></svg>