<svg width="24" height="24" viewBox="0 0 24 24" fill="none" xmlns="http://www.w3.org/2000/svg"><path d="M23.4 6.3C23.1 5.25 22.35 4.5 21.3 4.2C19.5 3.75 11.85 3.75 11.85 3.75C11.85 3.75 4.35001 3.75 2.40001 4.2C1.35001 4.5 0.599995 5.25 0.299995 6.3C-4.58211e-06 8.25 0 12.15 0 12.15C0 12.15 4.55976e-06 16.05 0.450005 18C0.750005 19.05 1.5 19.8 2.55 20.1C4.35 20.55 12 20.55 12 20.55C12 20.55 19.5 20.55 21.45 20.1C22.5 19.8 23.25 19.05 23.55 18C24 16.05 24 12.15 24 12.15C24 12.15 24 8.25 23.4 6.3ZM9.59999 15.75V8.55L15.9 12.15L9.59999 15.75Z" fill="currentColor"/></svg>