<svg xmlns="http://www.w3.org/2000/svg" style="border: 0 !important; clip: rect(0 0 0 0) !important; height: 1px !important; margin: -1px !important; overflow: hidden !important; padding: 0 !important; position: absolute !important; width: 1px !important;" class="root-svg-symbols-element">
  <defs>
      <clipPath id="clip0_1701_11174"><path fill="#fff" transform="rotate(-90 11.99 11.99)" d="M0 0H23.98V12H0z"/></clipPath>
  </defs>
    <symbol id="bathroom-icon" viewBox="0 0 20 20">
      <path d="M0.416324 11.1663H1.37458V13.7913C1.37458 15.7912 2.87467 17.4996 4.79144 17.708H5.24982L4.37475 19.4164C4.24983 19.6247 4.33304 19.8748 4.54138 19.9997C4.58309 19.9999 4.6248 19.9999 4.70801 19.9999C4.87464 19.9999 4.99976 19.9165 5.08297 19.7916L6.16639 17.7082H9.99992H13.8335L14.9169 19.7916C15.0003 19.9165 15.1252 19.9999 15.2918 19.9999C15.3753 19.9999 15.4168 19.9999 15.5002 19.9582C15.7085 19.8333 15.7919 19.5832 15.6668 19.3749L14.7917 17.6665H15.2501C17.1669 17.4998 18.667 15.7914 18.667 13.7498V11.1248H19.5836C19.8336 11.1248 20.0002 10.9582 20.0002 10.7081C20.0002 10.4581 19.8336 10.2914 19.5836 10.2914H17.6251V2.0829C17.6251 0.916306 16.7083 -0.000488281 15.5417 -0.000488281C14.5417 -0.000488281 13.5417 0.791146 13.2917 1.70794C12.7916 1.66623 12.25 1.79136 11.7916 2.08291C11.2083 2.45788 10.8333 2.9997 10.6665 3.66618C10.6248 3.87452 10.7499 4.12457 10.9997 4.16628L15.1248 5.12453H15.2082C15.2916 5.12453 15.3748 5.08282 15.4165 5.04111C15.5 4.9994 15.5832 4.87448 15.5832 4.79106C15.7498 4.12433 15.6249 3.45759 15.2499 2.87429C14.9581 2.41591 14.5414 2.08266 14.0416 1.87432C14.2082 1.33274 14.8749 0.832627 15.4582 0.832627C16.125 0.832627 16.7083 1.3742 16.7083 2.08266V10.3329L0.416189 10.3331C0.166141 10.3331 -0.000488281 10.4997 -0.000488281 10.7498C-0.000488281 10.9998 0.166141 11.1664 0.416189 11.1664L0.416324 11.1663ZM14.625 3.33277C14.7917 3.58282 14.8751 3.87434 14.8751 4.20784L11.6666 3.45772C11.7915 3.20767 11.9998 2.95762 12.2916 2.79098C12.6665 2.54094 13.1249 2.45772 13.5833 2.58264C14 2.66606 14.375 2.95782 14.625 3.33277H14.625ZM2.20804 11.1663H17.8334V13.7913C17.8334 15.3745 16.6668 16.708 15.2085 16.8746C14.9167 16.8746 8.62497 16.9163 5.9999 16.8746H4.91649C3.4164 16.7497 2.24981 15.3745 2.24981 13.7913V11.1663H2.20804Z" fill="#A08452"/><path d="M14.0832 6.87451C14.2916 6.87451 14.4582 6.74959 14.4999 6.54125L14.5833 5.95795C14.625 5.74961 14.4584 5.49957 14.2501 5.45786C14.0417 5.41615 13.7917 5.58278 13.75 5.79112L13.6665 6.37441C13.6248 6.58275 13.7915 6.8328 13.9998 6.87451H14.0832Z" fill="#A08452"/><path d="M10.9164 6.37451H10.9998C11.2082 6.37451 11.3748 6.24959 11.4165 6.04125L11.4999 5.45795C11.5416 5.24961 11.375 4.99957 11.1667 4.95786C10.9583 4.91615 10.7083 5.08278 10.6666 5.29111L10.5832 5.87441C10.5412 6.08295 10.7081 6.333 10.9164 6.37451Z" fill="#A08452"/><path d="M12.4163 7.54126C12.6246 7.54126 12.7912 7.41634 12.833 7.208L12.9164 6.6247C12.9581 6.41636 12.7915 6.16631 12.5831 6.1246C12.3748 6.0829 12.1247 6.24952 12.083 6.45786L11.9996 7.04116C11.9579 7.2495 12.1245 7.49955 12.3329 7.54126H12.4163Z" fill="#A08452"/>
    </symbol>
    <symbol id="bedroom-icon" viewBox="0 0 22 18">
      <path fill-rule="evenodd" clip-rule="evenodd" d="M19.1231 1C19.2516 0.999838 19.3557 1.10398 19.3557 1.23246V8.40433C19.3854 8.42234 19.4148 8.44067 19.4438 8.45949C20.3952 9.07219 20.9998 10.0791 20.9998 11.4885V17.493H21C21.0011 17.5554 20.9771 17.6158 20.9335 17.6604C20.8897 17.705 20.8298 17.73 20.7673 17.73C20.7049 17.73 20.645 17.705 20.6014 17.6604C20.5576 17.6158 20.5336 17.5554 20.5349 17.493V15.9373H1.46525V17.493C1.46574 17.5551 1.44141 17.6146 1.39777 17.6586C1.35397 17.7027 1.2946 17.7274 1.23263 17.7274C1.17066 17.7274 1.11113 17.7027 1.06749 17.6586C1.02385 17.6146 0.999521 17.5551 1.00001 17.493V11.4885C1.00001 10.0794 1.60216 9.07252 2.55145 8.45965C2.58195 8.43986 2.61293 8.42056 2.64424 8.40174V1.23278C2.64424 1.1043 2.74838 1.00032 2.8767 1.00032L19.1231 1ZM18.8906 1.46507H3.10918V8.1573C3.75286 7.86644 4.50132 7.7039 5.30692 7.63965V4.85811L5.30676 4.85795C5.30676 4.7491 5.38235 4.65469 5.4886 4.63101C5.90583 4.53773 6.29711 4.63117 6.64993 4.73207C7.00276 4.83265 7.32509 4.93938 7.60669 4.93938C7.92643 4.93938 8.25947 4.81999 8.62703 4.71179C8.99446 4.60343 9.40697 4.50918 9.85518 4.63409V4.63393C9.95576 4.66199 10.0254 4.75348 10.0254 4.85795V7.60672H11.9741V4.85795H11.9743C11.9743 4.74894 12.0498 4.65469 12.1561 4.63101C12.5743 4.53773 12.9661 4.63117 13.319 4.73207C13.672 4.83281 13.9939 4.93938 14.2742 4.93938C14.5952 4.93938 14.9288 4.81999 15.2961 4.71179C15.6636 4.60343 16.0755 4.50902 16.5228 4.63409V4.63393C16.6233 4.66199 16.6929 4.75364 16.6929 4.85795V7.64015C17.498 7.70504 18.2464 7.86839 18.8904 8.15992L18.8906 1.46507ZM16.1018 5.03971C15.885 5.03614 15.6662 5.08773 15.4279 5.15797C15.0814 5.26017 14.7044 5.40471 14.2744 5.40471C13.8849 5.40471 13.5277 5.27542 13.1917 5.17955C12.9249 5.10347 12.6764 5.04815 12.4395 5.0608V7.60696H15.8348C15.9668 7.60696 16.0979 7.60923 16.2278 7.61377V5.04847C16.1858 5.04344 16.1438 5.04052 16.1018 5.03971L16.1018 5.03971ZM9.43363 5.03971C9.21626 5.03614 8.99692 5.08773 8.7588 5.15797C8.4123 5.26017 8.03613 5.40471 7.60707 5.40471C7.21661 5.40471 6.85873 5.27542 6.52265 5.17955C6.25596 5.10347 6.00808 5.04815 5.77224 5.0608V7.61348C5.8999 7.6091 6.02854 7.60699 6.15832 7.60699H9.56054V5.04866C9.5182 5.04347 9.47602 5.04055 9.43368 5.0399L9.43363 5.03971ZM15.8347 8.07208H6.15791C4.82818 8.07208 3.63832 8.31135 2.80341 8.85023C2.02023 9.35588 1.52854 10.1066 1.47061 11.2556H20.5286C20.4705 10.1068 19.9769 9.35604 19.1916 8.85023C18.3546 8.3112 17.1628 8.07192 15.8343 8.07192L15.8347 8.07208ZM20.5349 11.7208H1.46525V15.472H20.5349V11.7208Z" fill="#A08452" stroke="#A08452" stroke-width=".5"/>
    </symbol>
    <symbol id="burger-icon" viewBox="0 0 24 24">
      <path transform="matrix(-1 0 0 1 24 20)" stroke="#A08452" d="M0 -0.5L24 -0.5"/><path transform="matrix(-1 0 0 1 24 13)" stroke="#A08452" d="M0 -0.5L24 -0.5"/><path transform="matrix(-1 0 0 1 24 6)" stroke="#A08452" d="M0 -0.5L24 -0.5"/>
    </symbol>
    <symbol id="button-arrow" viewBox="0 0 7 16">
      <path stroke="#fff" d="M6.646 9.848L0.652 3.854"/><path transform="scale(-1 1) rotate(45 -14.959 -3.696)" stroke="#fff" d="M0 -0.5L8.478 -0.5"/>
    </symbol>
    <symbol id="check-icon" viewBox="0 0 20 20">
      <path fill="#A08452" d="M0 0H20V20H0z"/><path d="M4 10.3182L7.72414 14L16 5" stroke="#fff" stroke-width="2"/>
    </symbol>
    <symbol id="dropdown-arrow" viewBox="0 0 12 8">
      <path stroke="#BFAA83" d="M5.646 7.146L11.641 1.152"/><path transform="scale(-1 1) rotate(-45 6.047 10.99)" stroke="#BFAA83" d="M0 -0.5L8.478 -0.5"/>
    </symbol>
    <symbol id="email-icon" viewBox="0 0 24 24">
      <path d="M21.0193 20.4994L13.746 13.4766L12.5228 14.6626C12.3771 14.8039 12.189 14.8742 12.0007 14.8742C11.8124 14.8742 11.6243 14.8036 11.4786 14.6626L10.2556 13.4766L2.98169 20.4994H21.0193Z" fill="#fff"/><path d="M12.0006 13.0798L22.9121 2.49902H1.08899L12.0006 13.0798Z" fill="#fff"/><path d="M23.25 20.4995C23.6641 20.4995 23.9999 20.1634 23.9999 19.7496V3.53223L14.8221 12.4314L23.1776 20.4989L23.25 20.4995Z" fill="#fff"/><path d="M0.749439 20.4999H0.821375L9.17682 12.4324L-0.000976562 3.5332V19.7505C-0.000976562 20.1646 0.334901 20.5005 0.748983 20.5005L0.749439 20.4999Z" fill="#fff"/>
    </symbol>
    <symbol id="instagram-icon" viewBox="0 0 24 24">
      <path d="M12 2.16867C15.1807 2.16867 15.6145 2.16867 16.9157 2.16867C18.0723 2.16867 18.6506 2.45783 19.0843 2.60241C19.6627 2.89157 20.0964 3.03615 20.5301 3.46988C20.9639 3.90362 21.253 4.33735 21.3976 4.91566C21.5422 5.3494 21.6867 5.92771 21.8313 7.08434C21.8313 8.38554 21.8313 8.6747 21.8313 12C21.8313 15.3253 21.8313 15.6145 21.8313 16.9157C21.8313 18.0723 21.5422 18.6506 21.3976 19.0843C21.1084 19.6627 20.9639 20.0964 20.5301 20.5301C20.0964 20.9639 19.6627 21.253 19.0843 21.3976C18.6506 21.5422 18.0723 21.6867 16.9157 21.8313C15.6145 21.8313 15.3253 21.8313 12 21.8313C8.6747 21.8313 8.38554 21.8313 7.08434 21.8313C5.92771 21.8313 5.3494 21.5422 4.91566 21.3976C4.33735 21.1084 3.90362 20.9639 3.46988 20.5301C3.03615 20.0964 2.74699 19.6627 2.60241 19.0843C2.45783 18.6506 2.31325 18.0723 2.16867 16.9157C2.16867 15.6145 2.16867 15.3253 2.16867 12C2.16867 8.6747 2.16867 8.38554 2.16867 7.08434C2.16867 5.92771 2.45783 5.3494 2.60241 4.91566C2.89157 4.33735 3.03615 3.90362 3.46988 3.46988C3.90362 3.03615 4.33735 2.74699 4.91566 2.60241C5.3494 2.45783 5.92771 2.31325 7.08434 2.16867C8.38554 2.16867 8.81928 2.16867 12 2.16867ZM12 0C8.6747 0 8.38554 0 7.08434 0C5.78313 0 4.91566 0.289157 4.19277 0.578314C3.46988 0.867471 2.74699 1.30121 2.0241 2.0241C1.30121 2.74699 1.01205 3.3253 0.578314 4.19277C0.289158 4.91566 0.144578 5.78313 0 7.08434C0 8.38554 0 8.81928 0 12C0 15.3253 0 15.6145 0 16.9157C0 18.2169 0.289158 19.0843 0.578314 19.8072C0.867471 20.5301 1.30121 21.253 2.0241 21.9759C2.74699 22.6988 3.3253 22.988 4.19277 23.4217C4.91566 23.7108 5.78313 23.8554 7.08434 24C8.38554 24 8.81928 24 12 24C15.1807 24 15.6145 24 16.9157 24C18.2169 24 19.0843 23.7108 19.8072 23.4217C20.5301 23.1325 21.253 22.6988 21.9759 21.9759C22.6988 21.253 22.988 20.6747 23.4217 19.8072C23.7108 19.0843 23.8554 18.2169 24 16.9157C24 15.6145 24 15.1807 24 12C24 8.81928 24 8.38554 24 7.08434C24 5.78313 23.7108 4.91566 23.4217 4.19277C23.1325 3.46988 22.6988 2.74699 21.9759 2.0241C21.253 1.30121 20.6747 1.01205 19.8072 0.578314C19.0843 0.289157 18.2169 0.144578 16.9157 0C15.6145 0 15.3253 0 12 0Z" fill="currentColor"/><path d="M12 5.78313C8.53012 5.78313 5.78313 8.53012 5.78313 12C5.78313 15.4699 8.53012 18.2169 12 18.2169C15.4699 18.2169 18.2169 15.4699 18.2169 12C18.2169 8.53012 15.4699 5.78313 12 5.78313ZM12 16.0482C9.83133 16.0482 7.95181 14.3133 7.95181 12C7.95181 9.83133 9.68675 7.95181 12 7.95181C14.1687 7.95181 16.0482 9.68675 16.0482 12C16.0482 14.1687 14.1687 16.0482 12 16.0482Z" fill="currentColor"/><path d="M18.3614 7.08434C19.1599 7.08434 19.8072 6.43704 19.8072 5.63856C19.8072 4.84007 19.1599 4.19277 18.3614 4.19277C17.563 4.19277 16.9157 4.84007 16.9157 5.63856C16.9157 6.43704 17.563 7.08434 18.3614 7.08434Z" fill="currentColor"/>
    </symbol>
    <symbol id="location-icon" viewBox="0 0 24 24">
      <path d="M14.4382 17.8278L22.2256 19.2664V12.9607C22.2256 11.9708 21.4227 11.1694 20.4343 11.1694H17.0453L14.4382 17.8278Z" fill="#fff"/><path d="M10.7806 19.6049L1 18.2764V22.2098C1 23.1984 1.80283 23.9997 2.79128 23.9997H8.56789L10.7806 19.6049Z" fill="#fff"/><path d="M13.5932 19.9868L12.0222 24.0001H20.4345C21.4231 24.0001 22.2258 23.1987 22.2258 22.2101V21.1582L13.5932 19.9868Z" fill="#fff"/><path d="M7.58706 0C5.13768 0 3.15161 1.98569 3.15161 4.43545C3.15161 5.35627 3.57059 6.77249 4.17104 8.18306C4.31871 8.5316 6.48435 13.434 7.58668 13.434C8.68897 13.434 10.8548 8.53012 11.0023 8.18306C11.6028 6.77266 12.0218 5.35644 12.0218 4.43545C12.0221 1.98607 10.0369 0 7.58673 0H7.58706ZM7.58706 6.83859C6.20318 6.83859 5.08214 5.71606 5.08214 4.33367C5.08214 2.94978 6.20318 1.82874 7.58706 1.82874C8.96946 1.82874 10.092 2.94978 10.092 4.33367C10.092 5.71606 8.96946 6.83859 7.58706 6.83859Z" fill="#fff"/><path d="M10.8617 11.1692C9.8718 13.0059 8.42461 15.3726 7.58648 15.3726C6.74836 15.3726 5.30117 13.0046 4.31123 11.1692H2.79128C1.80266 11.1692 1 11.9706 1 12.9605V15.3466L11.9092 17.3605L15.0268 11.1685H10.8615L10.8617 11.1692Z" fill="#fff"/>
    </symbol>
    <symbol id="logo" viewBox="0 0 175 60">
      <path d="M1.36364 0H0V60H1.36364V0Z" fill="currentColor"/><path d="M174.818 58.6364H0V60H174.818V58.6364Z" fill="currentColor"/><path d="M174.818 0H173.455V60H174.818V0Z" fill="currentColor"/><path d="M174.818 0H0V1.36364H174.818V0Z" fill="currentColor"/><path d="M18.0955 18.3L15 17.7955V15.3545H23.9045L35.6045 33.0545L37.8 37.5409V18.3136L34.4182 17.8091V15.3682H44.1545V17.8091L41.1273 18.3136V44.5773H36.3818L24.1773 25.9773L21.4364 20.7818V41.8227L25.4045 42.2182V44.5773H15V42.2182L18.0955 41.8227V18.3Z" fill="currentColor"/><path d="M59.55 45C55.2818 45 52.0909 43.6636 49.9773 40.9909C47.8636 38.3182 46.8 34.6773 46.8 30.0545C46.8 27.0409 47.3454 24.3955 48.45 22.1182C49.5818 19.8409 51.15 18.0818 53.1545 16.8545C55.1727 15.6273 57.4909 15 60.0954 15C64.4182 15 67.65 16.2818 69.7909 18.8591C71.9591 21.3955 73.05 24.9682 73.05 29.55C73.05 32.5909 72.4773 35.2909 71.3182 37.65C70.1864 39.9818 68.6045 41.7955 66.5727 43.0773C64.5409 44.3591 62.1954 45 59.55 45ZM59.9454 17.4C57.8045 17.4 56.1273 18.4636 54.9273 20.5909C53.7273 22.7182 53.1273 25.8545 53.1273 30.0273C53.1273 34.1455 53.7 37.2818 54.8591 39.4227C56.0318 41.55 57.7091 42.6 59.8773 42.6C61.9909 42.6 63.6545 41.4818 64.8682 39.2591C66.0682 37.0091 66.6682 33.7636 66.6682 29.55C66.6682 25.4591 66.0955 22.4182 64.9364 20.4273C63.7773 18.4091 62.1136 17.4 59.9454 17.4Z" fill="currentColor"/><path d="M79.4864 18.3L76.4318 17.7955V15.3545H82.2818C83.1682 15.3545 84.3273 15.3 85.7318 15.1909C86.0727 15.1636 86.4818 15.1364 86.9454 15.1091C87.4227 15.0818 87.9682 15.0682 88.5954 15.0682C92.55 15.0682 95.3045 15.6273 96.8727 16.7591C98.4682 17.8636 99.2727 19.5136 99.2727 21.7091C99.2727 23.6455 98.6863 25.2682 97.5 26.5909C96.3545 27.8727 94.8273 28.6636 92.9454 28.95C95.5363 28.9227 97.5682 29.5091 99.0273 30.7227C100.514 31.9227 101.264 33.6 101.264 35.7545C101.264 38.4818 100.309 40.6636 98.4 42.3273C96.4909 43.9773 93.3 44.8091 88.8273 44.8091C87.6545 44.8091 86.5636 44.7682 85.5682 44.6864C85.3091 44.6864 84.8591 44.6591 84.2318 44.6045C83.6045 44.5773 82.9636 44.5636 82.3091 44.5636H76.3773V42.2045L79.4727 41.8091V18.3H79.4864ZM85.1727 28.0909C85.4591 28.1182 86.0454 28.1318 86.9454 28.1318H88.7863C90.3818 28.1318 91.5682 27.6273 92.3591 26.6318C93.15 25.6364 93.5318 24.2318 93.5318 22.4182C93.5318 20.6864 93.1227 19.4318 92.3182 18.6409C91.5136 17.85 90.1636 17.4545 88.2818 17.4545C87.7773 17.4545 86.7545 17.5091 85.1864 17.6182V28.0909H85.1727ZM85.1727 41.9727C85.7727 42.2046 86.9318 42.3273 88.6227 42.3273C90.8454 42.3273 92.4545 41.8091 93.45 40.7591C94.4454 39.7091 94.9363 38.1955 94.9363 36.2045C94.9363 34.2955 94.4727 32.9318 93.5591 32.1136C92.6727 31.2682 91.2409 30.8591 89.2773 30.8591C87.0818 30.8591 85.7045 30.8864 85.1591 30.9409V41.9727H85.1727Z" fill="currentColor"/><path d="M107.836 18.3L104.7 17.7955V15.3545H125.618L126.123 21.9545H123.368L122.073 18.0682L113.591 17.7136V28.2955L119.045 28.1727L119.673 24.9545H122.182V34.4727H119.673L119.045 31.0909L113.591 30.9682V42.0546L123.095 41.5773L125.373 36.5455L128.318 37.3773L127.295 44.5773H104.727V42.2182L107.823 41.8227V18.3H107.836Z" fill="currentColor"/><path d="M154.091 34.5L153.859 36.45C152.536 37.5818 151.705 39.2455 151.705 41.1136C151.705 42.3818 152.1 43.5682 152.768 44.5636H131.182V42.2045L134.277 41.8091V18.3L131.25 17.7818V15.3409H143.809V17.7818L140.045 18.3V41.7682L148.445 41.4136L150.914 34.0636L154.091 34.5Z" fill="currentColor"/><path d="M156.409 44.5909C158.292 44.5909 159.818 43.0646 159.818 41.1818C159.818 39.299 158.292 37.7727 156.409 37.7727C154.526 37.7727 153 39.299 153 41.1818C153 43.0646 154.526 44.5909 156.409 44.5909Z" fill="currentColor"/>
    </symbol>
    <symbol id="payment-icon" viewBox="0 0 64 64">
      <path d="M2.13285 37.8668V27.2002H34.4962C34.4962 27.0935 34.5176 26.9973 34.5281 26.8906C34.56 26.6454 34.6029 26.3892 34.6562 26.1335C34.6881 25.9416 34.731 25.7601 34.7843 25.5682C34.8267 25.4082 34.8696 25.2482 34.9334 25.0668C34.9972 24.8106 35.0934 24.5335 35.2105 24.2668C35.52 23.4349 35.9467 22.6239 36.48 21.8667C36.6719 21.5786 36.8853 21.2905 37.12 21.0239C37.3015 20.8001 37.5038 20.5763 37.7281 20.3629C37.9415 20.1391 38.1548 19.9258 38.3896 19.7334H2.13377V16.5334C2.13377 15.9467 2.61377 15.4667 3.20044 15.4667H43.5839C43.8611 15.1253 44.1811 14.8162 44.5439 14.56C44.5654 14.5386 44.5973 14.5281 44.6187 14.5067C44.8854 14.2934 45.2054 14.0905 45.5678 13.9305C45.0454 13.5572 44.4163 13.3334 43.7335 13.3334H3.20001C1.43994 13.3334 0 14.7733 0 16.5334V37.8668C0 39.6268 1.43994 41.0668 3.20001 41.0668H30.3788C30.4535 40.7682 30.5492 40.4801 30.6773 40.203C30.7097 40.1387 30.7307 40.0639 30.7735 40.0001C30.9335 39.6373 31.1468 39.2749 31.424 38.9334H3.20052C2.61385 38.9334 2.13385 38.4534 2.13385 37.8668L2.13285 37.8668Z" fill="#BFAA83"/><path d="M34.4091 36.8014V30.4014H33.0654C32.4787 30.4014 31.9987 30.8814 31.9987 31.468V35.7347C31.9987 36.3214 32.4787 36.8014 33.0654 36.8014H34.4091Z" fill="#BFAA83"/><path d="M45.4171 48.5873H43.9557C44.9157 49.8568 46.4415 50.6672 48.1586 50.6672C49.8758 50.6672 51.4016 49.8568 52.3719 48.5873H45.4171Z" fill="#BFAA83"/><path d="M60.1174 38.6886H59.7764V35.4457C59.7017 35.4671 59.6164 35.4776 59.5312 35.4776H49.0564C48.4697 35.4776 47.9897 34.9976 47.9897 34.4109C47.9897 33.8138 48.4697 33.3442 49.0564 33.3442H59.5312C59.6164 33.3442 59.7017 33.3547 59.7764 33.3761V28.4909C59.7764 26.2614 58.9979 24.0961 57.5793 22.4109C56.7046 21.3761 55.6593 20.5443 54.4645 19.9575C54.3684 19.9147 54.2726 19.8614 54.1764 19.8294C53.5045 19.5199 52.7793 19.2856 52.0326 19.1471C51.6807 19.0832 51.3179 19.0404 50.9555 19.0085C50.7317 18.998 50.4969 18.9871 50.2726 18.9871H46.0488C45.825 18.9871 45.5903 18.9975 45.3665 19.0085C45.3236 19.019 45.2812 19.019 45.2384 19.019C44.9184 19.0509 44.5984 19.0937 44.2893 19.1471C43.6269 19.2752 42.9764 19.4671 42.3574 19.7337C42.2826 19.7656 42.2188 19.7975 42.144 19.8299C41.9674 19.9056 41.8016 20.0004 41.6321 20.0885C41.5397 20.1371 41.4431 20.178 41.3526 20.2299C41.0483 20.4033 40.7531 20.5918 40.4697 20.8004C40.0216 21.1204 39.6164 21.4723 39.2431 21.8671C39.0617 22.0376 38.9017 22.219 38.7417 22.4109C38.0698 23.2004 37.5469 24.0966 37.1841 25.0671C37.0455 25.4085 36.9279 25.7709 36.8427 26.1337C36.7465 26.4856 36.6827 26.8376 36.6398 27.2004C36.576 27.6271 36.5436 28.0538 36.5436 28.4909L36.5441 30.4004V38.688H36.2027C36.0212 38.688 35.8508 38.6985 35.6798 38.7309C35.3922 38.7633 35.115 38.8271 34.8588 38.9337C34.2507 39.1471 33.7174 39.5204 33.3017 40.0004C33.0246 40.3099 32.7898 40.6723 32.6298 41.0671C32.427 41.5256 32.3203 42.0376 32.3203 42.5709C32.3203 43.6057 32.7256 44.5761 33.4617 45.3123C34.2084 46.0485 35.1789 46.4537 36.2031 46.4537H60.1185C61.1423 46.4537 62.1132 46.0485 62.8704 45.3123C63.5951 44.5766 64.0004 43.6056 64.0004 42.5709C64.0004 40.4271 62.2618 38.6885 60.1175 38.6885L60.1174 38.6886Z" fill="#BFAA83"/><path d="M45.1836 16.8759H45.2688C45.4612 16.8649 45.6636 16.8544 45.8664 16.8544H50.2717C50.5279 16.8544 50.7946 16.8649 51.0503 16.8759C51.0932 16.8759 51.1251 16.8863 51.157 16.8863C51.0717 16.7902 50.9865 16.6944 50.9008 16.5982C50.1651 15.873 49.1836 15.4678 48.1599 15.4678C47.6799 15.4678 47.2318 15.553 46.8161 15.713C46.4642 15.8411 46.1332 16.0225 45.8456 16.2463C45.5894 16.4278 45.3652 16.6411 45.1837 16.8759L45.1836 16.8759Z" fill="#BFAA83"/>
    </symbol>
    <symbol id="phone-2-icon" viewBox="0 0 25 26">
      <path fill-rule="evenodd" clip-rule="evenodd" d="M17.8001 17.0998C17.8001 19.7998 15.7001 21.7998 13.1001 21.7998C10.4001 21.7998 8.30007 19.6998 8.30007 17.0998C8.30007 14.4998 10.5001 12.2998 13.1001 12.2998C15.7001 12.2998 17.8001 14.3998 17.8001 17.0998ZM13.1001 20.0998C14.8001 20.0998 16.1001 18.7998 16.1001 17.0998C16.1001 15.3998 14.8001 13.9998 13.1001 13.9998C11.4001 13.9998 10.0001 15.3998 10.0001 17.0998C10.0001 18.6998 11.4001 20.0998 13.1001 20.0998ZM17.6001 12.8998C17.6001 12.8998 17.2001 9.29984 16.3001 9.19984C15.0001 8.89984 11.0001 8.89984 9.80007 9.09984C8.90007 9.29984 8.50007 12.7998 8.50007 12.7998L2.70007 18.0998V23.0998H23.4001V18.0998L17.6001 12.8998Z" fill="#B29768"/><path fill-rule="evenodd" clip-rule="evenodd" d="M25 6.3V9.6L19 7.9V6.5C19 2 6.99998 2 6.99998 6.5V7.9L1.09998 9.6C0.899976 8.5 0.999976 7.4 0.999976 6.3C0.999976 -2.1 25 -2.1 25 6.3Z" fill="#B29768"/>
    </symbol>
    <symbol id="phone-icon" viewBox="0 0 25 26">
      <path fill-rule="evenodd" clip-rule="evenodd" d="M17.8001 17.1C17.8001 19.8 15.7001 21.8 13.1001 21.8C10.4001 21.8 8.30007 19.7 8.30007 17.1C8.30007 14.5 10.5001 12.3 13.1001 12.3C15.7001 12.3 17.8001 14.4 17.8001 17.1ZM13.1001 20.1C14.8001 20.1 16.1001 18.8 16.1001 17.1C16.1001 15.4 14.8001 14 13.1001 14C11.4001 14 10.0001 15.4 10.0001 17.1C10.0001 18.7 11.4001 20.1 13.1001 20.1ZM17.6001 12.9C17.6001 12.9 17.2001 9.29996 16.3001 9.19996C15.0001 8.89996 11.0001 8.89996 9.80007 9.09996C8.90007 9.29996 8.50007 12.8 8.50007 12.8L2.70007 18.1V23.1H23.4001V18.1L17.6001 12.9Z" fill="#BFAA83"/><path fill-rule="evenodd" clip-rule="evenodd" d="M25 10.3V13.6L19 11.9V10.5C19 6 6.99998 6 6.99998 10.5V11.9L1.09998 13.6C0.899976 12.5 0.999976 11.4 0.999976 10.3C0.999976 1.9 25 1.9 25 10.3Z" fill="#BFAA83"/>
    </symbol>
    <symbol id="search-icon" viewBox="0 0 24 24">
      <mask id="path-1-inside-1_1701_44429" fill="#fff"><path d="M15.6105 14.7713L24 23.1609L23.161 23.9998L14.7715 15.6103L15.6105 14.7713Z"/><path d="M15.1906 15.1906C11.7155 18.6657 6.08135 18.6657 2.60629 15.1906C-0.868765 11.7155 -0.868765 6.08135 2.60629 2.60629C6.08135 -0.868765 11.7155 -0.868765 15.1906 2.60629C18.6657 6.08135 18.6657 11.7155 15.1906 15.1906Z"/></mask><path d="M15.6105 14.7713L16.3176 14.0642L15.6105 13.3571L14.9034 14.0642L15.6105 14.7713ZM24 23.1609L24.7071 23.868L25.4142 23.1609L24.7071 22.4538L24 23.1609ZM23.161 23.9998L22.4539 24.7069L23.161 25.414L23.8682 24.7069L23.161 23.9998ZM14.7715 15.6103L14.0644 14.9032L13.3573 15.6103L14.0644 16.3174L14.7715 15.6103ZM14.9034 15.4784L23.2929 23.868L24.7071 22.4538L16.3176 14.0642L14.9034 15.4784ZM23.2929 22.4538L22.4539 23.2927L23.8682 24.7069L24.7071 23.868L23.2929 22.4538ZM23.8682 23.2927L15.4786 14.9032L14.0644 16.3174L22.4539 24.7069L23.8682 23.2927ZM15.4786 16.3174L16.3176 15.4784L14.9034 14.0642L14.0644 14.9032L15.4786 16.3174ZM14.4835 14.4835C11.399 17.568 6.39793 17.568 3.3134 14.4835L1.89919 15.8977C5.76477 19.7633 12.0321 19.7633 15.8977 15.8977L14.4835 14.4835ZM3.3134 14.4835C0.228866 11.399 0.228866 6.39793 3.3134 3.3134L1.89919 1.89919C-1.9664 5.76477 -1.9664 12.0321 1.89919 15.8977L3.3134 14.4835ZM3.3134 3.3134C6.39793 0.228866 11.399 0.228866 14.4835 3.3134L15.8977 1.89919C12.0321 -1.9664 5.76477 -1.9664 1.89919 1.89919L3.3134 3.3134ZM14.4835 3.3134C17.568 6.39793 17.568 11.399 14.4835 14.4835L15.8977 15.8977C19.7633 12.0321 19.7633 5.76477 15.8977 1.89919L14.4835 3.3134Z" fill="#C4C4C4" mask="url(#path-1-inside-1_1701_44429)"/>
    </symbol>
    <symbol id="slider-button-arrow" viewBox="0 0 12 24">
      <g clip-path="url(#clip0_1701_11174)" stroke="#fff"><path d="M11.646 12.343L-0.343 0.354"/><path transform="scale(-1 1) rotate(45 -20.468 -8.478)" d="M0 -0.5L16.956 -0.5"/></g>
    </symbol>
    <symbol id="square-icon" viewBox="0 0 20 20">
      <path fill-rule="evenodd" clip-rule="evenodd" d="M0.666859 0H0.000214169V7.33331H1.33346V2.27615L6.86205 7.80474L7.80491 6.86188L2.27632 1.33329H7.33348V4.28338e-05L0.666859 0ZM19.3334 0H20V7.33331H18.6668V2.27615L13.1382 7.80474L12.1953 6.86188L17.7239 1.33329H12.6667V4.28338e-05L19.3334 0ZM20 19.9998H12.6667V18.6665H17.7239L12.1953 13.1379L13.1381 12.1951L18.6667 17.7237V12.6665H20L20 19.9998ZM0.666645 19.9998H0V12.6665H1.33325V17.7236L6.86184 12.195L7.8047 13.1379L2.27611 18.6665H7.33327V19.9997L0.666645 19.9998Z" fill="#A08452"/>
    </symbol>
    <symbol id="telegram-icon" viewBox="0 0 24 24">
      <path d="M1.64987 10.8124C8.09231 8.00558 12.3883 6.15512 14.5378 5.26107C20.675 2.70837 21.9503 2.26494 22.7815 2.25014C22.9643 2.24708 23.3731 2.29238 23.6379 2.50723C23.8614 2.68865 23.9229 2.93371 23.9524 3.10571C23.9818 3.27771 24.0185 3.66954 23.9893 3.9757C23.6567 7.47014 22.2177 15.9502 21.4856 19.8641C21.1758 21.5202 20.5658 22.0754 19.9753 22.1298C18.6919 22.2479 17.7174 21.2817 16.4744 20.4669C14.5294 19.1919 13.4305 18.3982 11.5425 17.154C9.36064 15.7162 10.7751 14.9259 12.0185 13.6344C12.344 13.2964 17.9985 8.15319 18.1079 7.68662C18.1216 7.62827 18.1343 7.41076 18.0051 7.29591C17.8759 7.18105 17.6851 7.22033 17.5475 7.25156C17.3524 7.29584 14.2452 9.3496 8.22584 13.4128C7.34386 14.0185 6.54499 14.3136 5.82924 14.2981C5.04017 14.2811 3.52233 13.852 2.39397 13.4852C1.00999 13.0353 -0.0899675 12.7974 0.00581422 12.0334C0.0557033 11.6354 0.603724 11.2285 1.64987 10.8124Z" fill="currentColor"/>
    </symbol>
    <symbol id="vk-icon" viewBox="0 0 24 24">
      <path d="M13.0669 19.973C4.86713 19.973 0.191808 14.3626 0 5.01199H4.12388C4.25574 11.8691 7.27672 14.7702 9.67432 15.3696V5.01199H13.5465V10.9221C15.9081 10.6703 18.4016 7.97303 19.2408 5H23.1009C22.7862 6.53898 22.1574 7.99652 21.254 9.28155C20.3505 10.5666 19.1918 11.6515 17.8502 12.4685C19.3474 13.2137 20.6696 14.2679 21.7297 15.5614C22.7897 16.855 23.5635 18.3586 24 19.973H19.7443C18.8332 17.1319 16.5554 14.9261 13.5465 14.6264V19.973H13.0789H13.0669Z" fill="currentColor"/>
    </symbol>
    <symbol id="whatsapp-icon" viewBox="0 0 24 24">
      <path fill-rule="evenodd" clip-rule="evenodd" d="M20.4 3.45C18.15 1.2 15.15 0 12 0C5.4 0 0 5.4 0 12C0 14.1 0.600009 16.2 1.65001 18L0 24L6.30002 22.35C8.10002 23.25 10.05 23.85 12 23.85C18.6 23.85 24 18.45 24 11.85C24 8.7 22.65 5.7 20.4 3.45ZM12 21.9C10.2 21.9 8.40001 21.45 6.90001 20.55L6.59999 20.4L2.84999 21.45L3.90001 17.85L3.59999 17.4C2.54999 15.75 2.09999 13.95 2.09999 12.15C2.09999 6.75 6.6 2.25 12 2.25C14.7 2.25 17.1 3.3 19.05 5.1C21 7.05 21.9 9.45 21.9 12.15C21.9 17.4 17.55 21.9 12 21.9ZM17.4 14.4C17.1 14.25 15.6 13.5 15.3 13.5C15 13.35 14.85 13.35 14.7 13.65C14.55 13.95 13.95 14.55 13.8 14.85C13.65 15 13.5 15 13.2 15C12.9 14.85 12 14.55 10.8 13.5C9.90002 12.75 9.30001 11.7 9.15001 11.4C9.00001 11.1 9.15002 10.95 9.30002 10.8C9.45002 10.65 9.6 10.5 9.75 10.35C9.9 10.2 9.90002 10.05 10.05 9.9C10.2 9.75 10.05 9.6 10.05 9.45C10.05 9.3 9.45001 7.8 9.15001 7.2C9.00001 6.75 8.70002 6.75 8.55002 6.75C8.40002 6.75 8.24998 6.75 7.94998 6.75C7.79998 6.75 7.49998 6.75 7.19998 7.05C6.89998 7.35 6.15001 8.1 6.15001 9.6C6.15001 11.1 7.19999 12.45 7.34999 12.75C7.49999 12.9 9.44998 16.05 12.45 17.25C15 18.3 15.45 18 16.05 18C16.65 18 17.85 17.25 18 16.65C18.3 15.9 18.3 15.3 18.15 15.3C18 14.55 17.7 14.55 17.4 14.4Z" fill="currentColor"/>
    </symbol>
    <symbol id="youtube-icon" viewBox="0 0 24 24">
      <path d="M23.4 6.3C23.1 5.25 22.35 4.5 21.3 4.2C19.5 3.75 11.85 3.75 11.85 3.75C11.85 3.75 4.35001 3.75 2.40001 4.2C1.35001 4.5 0.599995 5.25 0.299995 6.3C-4.58211e-06 8.25 0 12.15 0 12.15C0 12.15 4.55976e-06 16.05 0.450005 18C0.750005 19.05 1.5 19.8 2.55 20.1C4.35 20.55 12 20.55 12 20.55C12 20.55 19.5 20.55 21.45 20.1C22.5 19.8 23.25 19.05 23.55 18C24 16.05 24 12.15 24 12.15C24 12.15 24 8.25 23.4 6.3ZM9.59999 15.75V8.55L15.9 12.15L9.59999 15.75Z" fill="currentColor"/>
    </symbol></svg>