<svg width="20" height="20" viewBox="0 0 20 20" fill="none" xmlns="http://www.w3.org/2000/svg">
<path d="M0.416324 11.1663H1.37458V13.7913C1.37458 15.7912 2.87467 17.4996 4.79144 17.708H5.24982L4.37475 19.4164C4.24983 19.6247 4.33304 19.8748 4.54138 19.9997C4.58309 19.9999 4.6248 19.9999 4.70801 19.9999C4.87464 19.9999 4.99976 19.9165 5.08297 19.7916L6.16639 17.7082H9.99992H13.8335L14.9169 19.7916C15.0003 19.9165 15.1252 19.9999 15.2918 19.9999C15.3753 19.9999 15.4168 19.9999 15.5002 19.9582C15.7085 19.8333 15.7919 19.5832 15.6668 19.3749L14.7917 17.6665H15.2501C17.1669 17.4998 18.667 15.7914 18.667 13.7498V11.1248H19.5836C19.8336 11.1248 20.0002 10.9582 20.0002 10.7081C20.0002 10.4581 19.8336 10.2914 19.5836 10.2914H17.6251V2.0829C17.6251 0.916306 16.7083 -0.000488281 15.5417 -0.000488281C14.5417 -0.000488281 13.5417 0.791146 13.2917 1.70794C12.7916 1.66623 12.25 1.79136 11.7916 2.08291C11.2083 2.45788 10.8333 2.9997 10.6665 3.66618C10.6248 3.87452 10.7499 4.12457 10.9997 4.16628L15.1248 5.12453H15.2082C15.2916 5.12453 15.3748 5.08282 15.4165 5.04111C15.5 4.9994 15.5832 4.87448 15.5832 4.79106C15.7498 4.12433 15.6249 3.45759 15.2499 2.87429C14.9581 2.41591 14.5414 2.08266 14.0416 1.87432C14.2082 1.33274 14.8749 0.832627 15.4582 0.832627C16.125 0.832627 16.7083 1.3742 16.7083 2.08266V10.3329L0.416189 10.3331C0.166141 10.3331 -0.000488281 10.4997 -0.000488281 10.7498C-0.000488281 10.9998 0.166141 11.1664 0.416189 11.1664L0.416324 11.1663ZM14.625 3.33277C14.7917 3.58282 14.8751 3.87434 14.8751 4.20784L11.6666 3.45772C11.7915 3.20767 11.9998 2.95762 12.2916 2.79098C12.6665 2.54094 13.1249 2.45772 13.5833 2.58264C14 2.66606 14.375 2.95782 14.625 3.33277H14.625ZM2.20804 11.1663H17.8334V13.7913C17.8334 15.3745 16.6668 16.708 15.2085 16.8746C14.9167 16.8746 8.62497 16.9163 5.9999 16.8746H4.91649C3.4164 16.7497 2.24981 15.3745 2.24981 13.7913V11.1663H2.20804Z" fill="#A08452"/>
<path d="M14.0832 6.87451C14.2916 6.87451 14.4582 6.74959 14.4999 6.54125L14.5833 5.95795C14.625 5.74961 14.4584 5.49957 14.2501 5.45786C14.0417 5.41615 13.7917 5.58278 13.75 5.79112L13.6665 6.37441C13.6248 6.58275 13.7915 6.8328 13.9998 6.87451H14.0832Z" fill="#A08452"/>
<path d="M10.9164 6.37451H10.9998C11.2082 6.37451 11.3748 6.24959 11.4165 6.04125L11.4999 5.45795C11.5416 5.24961 11.375 4.99957 11.1667 4.95786C10.9583 4.91615 10.7083 5.08278 10.6666 5.29111L10.5832 5.87441C10.5412 6.08295 10.7081 6.333 10.9164 6.37451Z" fill="#A08452"/>
<path d="M12.4163 7.54126C12.6246 7.54126 12.7912 7.41634 12.833 7.208L12.9164 6.6247C12.9581 6.41636 12.7915 6.16631 12.5831 6.1246C12.3748 6.0829 12.1247 6.24952 12.083 6.45786L11.9996 7.04116C11.9579 7.2495 12.1245 7.49955 12.3329 7.54126H12.4163Z" fill="#A08452"/>
</svg>
