<svg width="24" height="24" viewBox="0 0 24 24" fill="none" xmlns="http://www.w3.org/2000/svg">
<path d="M21.0193 20.4994L13.746 13.4766L12.5228 14.6626C12.3771 14.8039 12.189 14.8742 12.0007 14.8742C11.8124 14.8742 11.6243 14.8036 11.4786 14.6626L10.2556 13.4766L2.98169 20.4994H21.0193Z" fill="white"/>
<path d="M12.0006 13.0798L22.9121 2.49902H1.08899L12.0006 13.0798Z" fill="white"/>
<path d="M23.25 20.4995C23.6641 20.4995 23.9999 20.1634 23.9999 19.7496V3.53223L14.8221 12.4314L23.1776 20.4989L23.25 20.4995Z" fill="white"/>
<path d="M0.749439 20.4999H0.821375L9.17682 12.4324L-0.000976562 3.5332V19.7505C-0.000976562 20.1646 0.334901 20.5005 0.748983 20.5005L0.749439 20.4999Z" fill="white"/>
</svg>
