<svg width="24" height="24" viewBox="0 0 24 24" fill="none" xmlns="http://www.w3.org/2000/svg">
<path d="M14.4382 17.8278L22.2256 19.2664V12.9607C22.2256 11.9708 21.4227 11.1694 20.4343 11.1694H17.0453L14.4382 17.8278Z" fill="white"/>
<path d="M10.7806 19.6049L1 18.2764V22.2098C1 23.1984 1.80283 23.9997 2.79128 23.9997H8.56789L10.7806 19.6049Z" fill="white"/>
<path d="M13.5932 19.9868L12.0222 24.0001H20.4345C21.4231 24.0001 22.2258 23.1987 22.2258 22.2101V21.1582L13.5932 19.9868Z" fill="white"/>
<path d="M7.58706 0C5.13768 0 3.15161 1.98569 3.15161 4.43545C3.15161 5.35627 3.57059 6.77249 4.17104 8.18306C4.31871 8.5316 6.48435 13.434 7.58668 13.434C8.68897 13.434 10.8548 8.53012 11.0023 8.18306C11.6028 6.77266 12.0218 5.35644 12.0218 4.43545C12.0221 1.98607 10.0369 0 7.58673 0H7.58706ZM7.58706 6.83859C6.20318 6.83859 5.08214 5.71606 5.08214 4.33367C5.08214 2.94978 6.20318 1.82874 7.58706 1.82874C8.96946 1.82874 10.092 2.94978 10.092 4.33367C10.092 5.71606 8.96946 6.83859 7.58706 6.83859Z" fill="white"/>
<path d="M10.8617 11.1692C9.8718 13.0059 8.42461 15.3726 7.58648 15.3726C6.74836 15.3726 5.30117 13.0046 4.31123 11.1692H2.79128C1.80266 11.1692 1 11.9706 1 12.9605V15.3466L11.9092 17.3605L15.0268 11.1685H10.8615L10.8617 11.1692Z" fill="white"/>
</svg>
