<svg width="24" height="24" viewBox="0 0 24 24" fill="none" xmlns="http://www.w3.org/2000/svg">
<mask id="path-1-inside-1_1701_44429" fill="white">
<path d="M15.6105 14.7713L24 23.1609L23.161 23.9998L14.7715 15.6103L15.6105 14.7713Z"/>
<path d="M15.1906 15.1906C11.7155 18.6657 6.08135 18.6657 2.60629 15.1906C-0.868765 11.7155 -0.868765 6.08135 2.60629 2.60629C6.08135 -0.868765 11.7155 -0.868765 15.1906 2.60629C18.6657 6.08135 18.6657 11.7155 15.1906 15.1906Z"/>
</mask>
<path d="M15.6105 14.7713L16.3176 14.0642L15.6105 13.3571L14.9034 14.0642L15.6105 14.7713ZM24 23.1609L24.7071 23.868L25.4142 23.1609L24.7071 22.4538L24 23.1609ZM23.161 23.9998L22.4539 24.7069L23.161 25.414L23.8682 24.7069L23.161 23.9998ZM14.7715 15.6103L14.0644 14.9032L13.3573 15.6103L14.0644 16.3174L14.7715 15.6103ZM14.9034 15.4784L23.2929 23.868L24.7071 22.4538L16.3176 14.0642L14.9034 15.4784ZM23.2929 22.4538L22.4539 23.2927L23.8682 24.7069L24.7071 23.868L23.2929 22.4538ZM23.8682 23.2927L15.4786 14.9032L14.0644 16.3174L22.4539 24.7069L23.8682 23.2927ZM15.4786 16.3174L16.3176 15.4784L14.9034 14.0642L14.0644 14.9032L15.4786 16.3174ZM14.4835 14.4835C11.399 17.568 6.39793 17.568 3.3134 14.4835L1.89919 15.8977C5.76477 19.7633 12.0321 19.7633 15.8977 15.8977L14.4835 14.4835ZM3.3134 14.4835C0.228866 11.399 0.228866 6.39793 3.3134 3.3134L1.89919 1.89919C-1.9664 5.76477 -1.9664 12.0321 1.89919 15.8977L3.3134 14.4835ZM3.3134 3.3134C6.39793 0.228866 11.399 0.228866 14.4835 3.3134L15.8977 1.89919C12.0321 -1.9664 5.76477 -1.9664 1.89919 1.89919L3.3134 3.3134ZM14.4835 3.3134C17.568 6.39793 17.568 11.399 14.4835 14.4835L15.8977 15.8977C19.7633 12.0321 19.7633 5.76477 15.8977 1.89919L14.4835 3.3134Z" fill="#C4C4C4" mask="url(#path-1-inside-1_1701_44429)"/>
</svg>
