<svg width="20" height="20" viewBox="0 0 20 20" fill="none" xmlns="http://www.w3.org/2000/svg">
<path fill-rule="evenodd" clip-rule="evenodd" d="M0.666859 0H0.000214169V7.33331H1.33346V2.27615L6.86205 7.80474L7.80491 6.86188L2.27632 1.33329H7.33348V4.28338e-05L0.666859 0ZM19.3334 0H20V7.33331H18.6668V2.27615L13.1382 7.80474L12.1953 6.86188L17.7239 1.33329H12.6667V4.28338e-05L19.3334 0ZM20 19.9998H12.6667V18.6665H17.7239L12.1953 13.1379L13.1381 12.1951L18.6667 17.7237V12.6665H20L20 19.9998ZM0.666645 19.9998H0V12.6665H1.33325V17.7236L6.86184 12.195L7.8047 13.1379L2.27611 18.6665H7.33327V19.9997L0.666645 19.9998Z" fill="#A08452"/>
</svg>
