<svg width="24" height="24" viewBox="0 0 24 24" fill="none" xmlns="http://www.w3.org/2000/svg">
<path d="M13.0669 19.973C4.86713 19.973 0.191808 14.3626 0 5.01199H4.12388C4.25574 11.8691 7.27672 14.7702 9.67432 15.3696V5.01199H13.5465V10.9221C15.9081 10.6703 18.4016 7.97303 19.2408 5H23.1009C22.7862 6.53898 22.1574 7.99652 21.254 9.28155C20.3505 10.5666 19.1918 11.6515 17.8502 12.4685C19.3474 13.2137 20.6696 14.2679 21.7297 15.5614C22.7897 16.855 23.5635 18.3586 24 19.973H19.7443C18.8332 17.1319 16.5554 14.9261 13.5465 14.6264V19.973H13.0789H13.0669Z" fill="currentColor"/>
</svg>
